<svg version="1.1" viewBox="0.0 0.0 960.0 540.0" fill="none" stroke="none" stroke-linecap="square" stroke-miterlimit="10" xmlns:xlink="http://www.w3.org/1999/xlink" xmlns="http://www.w3.org/2000/svg"><clipPath id="g239cd32ed2b_0_0.0"><path d="m0 0l960.0 0l0 540.0l-960.0 0l0 -540.0z" clip-rule="nonzero"/></clipPath><g clip-path="url(#g239cd32ed2b_0_0.0)"><path fill="#ffffff" d="m0 0l960.0 0l0 540.0l-960.0 0z" fill-rule="evenodd"/><path fill="#000000" fill-opacity="0.0" d="m43.170605 61.11743l0 0c0 -22.112759 17.92593 -40.03869 40.038692 -40.03869l793.3085 0c10.6188965 0 20.802917 4.2183495 28.311584 11.72706c7.508728 7.508709 11.727112 17.692707 11.727112 28.31163l0 403.48166c0 22.112762 -17.925964 40.038696 -40.038696 40.038696l-793.3085 0c-22.112762 0 -40.038692 -17.925934 -40.038692 -40.038696z" fill-rule="evenodd"/><path stroke="#666666" stroke-width="1.0" stroke-linejoin="round" stroke-linecap="butt" stroke-dasharray="4.0,3.0" d="m43.170605 61.11743l0 0c0 -22.112759 17.92593 -40.03869 40.038692 -40.03869l793.3085 0c10.6188965 0 20.802917 4.2183495 28.311584 11.72706c7.508728 7.508709 11.727112 17.692707 11.727112 28.31163l0 403.48166c0 22.112762 -17.925964 40.038696 -40.038696 40.038696l-793.3085 0c-22.112762 0 -40.038692 -17.925934 -40.038692 -40.038696z" fill-rule="evenodd"/><path fill="#000000" d="m69.30379 42.10567l0 -1.609375l4.15625 0l0 3.796875q-0.609375 0.578125 -1.765625 1.03125q-1.140625 0.4375 -2.3125 0.4375q-1.5 0 -2.625 -0.625q-1.109375 -0.625 -1.671875 -1.78125q-0.546875 -1.171875 -0.546875 -2.546875q0 -1.5 0.625 -2.65625q0.625 -1.15625 1.828125 -1.78125q0.921875 -0.46875 2.28125 -0.46875q1.78125 0 2.78125 0.75q1.0 0.734375 1.28125 2.0625l-1.921875 0.34375q-0.1875 -0.703125 -0.75 -1.109375q-0.5625 -0.40625 -1.390625 -0.40625q-1.265625 0 -2.015625 0.8125q-0.734375 0.796875 -0.734375 2.375q0 1.6875 0.75 2.546875q0.75 0.84375 1.984375 0.84375q0.609375 0 1.203125 -0.234375q0.609375 -0.234375 1.046875 -0.578125l0 -1.203125l-2.203125 0zm5.913925 -4.34375l0 -1.703125l1.828125 0l0 1.703125l-1.828125 0zm0 7.84375l0 -6.90625l1.828125 0l0 6.90625l-1.828125 0zm6.8748627 -6.90625l0 1.453125l-1.25 0l0 2.78125q0 0.84375 0.03125 0.984375q0.046875 0.140625 0.171875 0.234375q0.125 0.09375 0.3125 0.09375q0.25 0 0.734375 -0.171875l0.15625 1.421875q-0.640625 0.265625 -1.453125 0.265625q-0.484375 0 -0.890625 -0.15625q-0.390625 -0.171875 -0.578125 -0.4375q-0.1875 -0.265625 -0.265625 -0.71875q-0.046875 -0.3125 -0.046875 -1.28125l0 -3.015625l-0.84375 0l0 -1.453125l0.84375 0l0 -1.375l1.828125 -1.078125l0 2.453125l1.25 0zm6.3444824 6.90625l-2.28125 -9.546875l1.96875 0l1.4375 6.5625l1.75 -6.5625l2.28125 0l1.671875 6.671875l1.46875 -6.671875l1.9375 0l-2.3125 9.546875l-2.046875 0l-1.890625 -7.125l-1.90625 7.125l-2.078125 0zm10.541962 -3.546875q0 -0.921875 0.453125 -1.765625q0.453125 -0.859375 1.265625 -1.296875q0.828125 -0.453125 1.84375 -0.453125q1.5625 0 2.5625 1.015625q1.015625 1.015625 1.015625 2.578125q0 1.5625 -1.015625 2.59375q-1.015625 1.03125 -2.546875 1.03125q-0.953125 0 -1.8125 -0.421875q-0.859375 -0.4375 -1.3125 -1.265625q-0.453125 -0.828125 -0.453125 -2.015625zm1.875 0.09375q0 1.03125 0.484375 1.578125q0.5 0.546875 1.203125 0.546875q0.71875 0 1.203125 -0.546875q0.484375 -0.546875 0.484375 -1.59375q0 -1.015625 -0.484375 -1.5625q-0.484375 -0.546875 -1.203125 -0.546875q-0.703125 0 -1.203125 0.546875q-0.484375 0.546875 -0.484375 1.578125zm8.438232 3.453125l-1.828125 0l0 -6.90625l1.703125 0l0 0.984375q0.4375 -0.703125 0.78125 -0.921875q0.34375 -0.21875 0.796875 -0.21875q0.625 0 1.203125 0.34375l-0.5625 1.59375q-0.46875 -0.296875 -0.859375 -0.296875q-0.390625 0 -0.65625 0.21875q-0.265625 0.203125 -0.421875 0.765625q-0.15625 0.546875 -0.15625 2.296875l0 2.140625zm3.3742828 0l0 -9.546875l1.828125 0l0 5.0625l2.140625 -2.421875l2.25 0l-2.359375 2.515625l2.53125 4.390625l-1.96875 0l-1.734375 -3.109375l-0.859375 0.890625l0 2.21875l-1.828125 0zm6.6781006 -6.90625l1.015625 0l0 -0.53125q0 -0.859375 0.1875 -1.28125q0.1875 -0.4375 0.671875 -0.703125q0.5 -0.28125 1.265625 -0.28125q0.78125 0 1.53125 0.234375l-0.25 1.28125q-0.4375 -0.109375 -0.84375 -0.109375q-0.390625 0 -0.5625 0.1875q-0.171875 0.1875 -0.171875 0.703125l0 0.5l1.359375 0l0 1.4375l-1.359375 0l0 5.46875l-1.828125 0l0 -5.46875l-1.015625 0l0 -1.4375zm5.2352448 6.90625l0 -9.546875l1.828125 0l0 9.546875l-1.828125 0zm3.2811127 -3.546875q0 -0.921875 0.453125 -1.765625q0.453125 -0.859375 1.265625 -1.296875q0.828125 -0.453125 1.84375 -0.453125q1.5625 0 2.5625 1.015625q1.015625 1.015625 1.015625 2.578125q0 1.5625 -1.015625 2.59375q-1.015625 1.03125 -2.546875 1.03125q-0.953125 0 -1.8125 -0.421875q-0.859375 -0.4375 -1.3125 -1.265625q-0.453125 -0.828125 -0.453125 -2.015625zm1.875 0.09375q0 1.03125 0.484375 1.578125q0.5 0.546875 1.203125 0.546875q0.71875 0 1.203125 -0.546875q0.484375 -0.546875 0.484375 -1.59375q0 -1.015625 -0.484375 -1.5625q-0.484375 -0.546875 -1.203125 -0.546875q-0.703125 0 -1.203125 0.546875q-0.484375 0.546875 -0.484375 1.578125zm7.9851074 3.453125l-2.1875 -6.90625l1.765625 0l1.296875 4.53125l1.203125 -4.53125l1.75 0l1.15625 4.53125l1.328125 -4.53125l1.796875 0l-2.21875 6.90625l-1.75 0l-1.203125 -4.4375l-1.171875 4.4375l-1.765625 0z" fill-rule="nonzero"/><path fill="#990000" d="m92.95513 280.3771l169.82678 0l0 14.173218l-169.82678 0z" fill-rule="evenodd"/><path fill="#ffffff" d="m102.65826 291.2037l0 -5.53125l0.84375 0l0 0.78125q0.25 -0.40625 0.6875 -0.65625q0.4375 -0.25 0.984375 -0.25q0.609375 0 1.0 0.265625q0.390625 0.25 0.5625 0.703125q0.65625 -0.96875 1.703125 -0.96875q0.828125 0 1.265625 0.46875q0.4375 0.453125 0.4375 1.390625l0 3.796875l-0.921875 0l0 -3.484375q0 -0.5625 -0.09375 -0.796875q-0.09375 -0.25 -0.34375 -0.40625q-0.234375 -0.15625 -0.546875 -0.15625q-0.59375 0 -0.984375 0.390625q-0.375 0.390625 -0.375 1.25l0 3.203125l-0.9375 0l0 -3.59375q0 -0.625 -0.234375 -0.9375q-0.21875 -0.3125 -0.75 -0.3125q-0.390625 0 -0.734375 0.21875q-0.328125 0.203125 -0.484375 0.609375q-0.140625 0.390625 -0.140625 1.15625l0 2.859375l-0.9375 0zm12.4861145 -0.6875q-0.53125 0.453125 -1.015625 0.640625q-0.46875 0.171875 -1.015625 0.171875q-0.921875 0 -1.40625 -0.4375q-0.484375 -0.453125 -0.484375 -1.140625q0 -0.40625 0.171875 -0.734375q0.1875 -0.34375 0.484375 -0.546875q0.3125 -0.203125 0.6875 -0.3125q0.265625 -0.0625 0.828125 -0.140625q1.125 -0.125 1.671875 -0.3125q0 -0.203125 0 -0.25q0 -0.578125 -0.265625 -0.8125q-0.359375 -0.3125 -1.0625 -0.3125q-0.65625 0 -0.984375 0.234375q-0.3125 0.234375 -0.453125 0.8125l-0.921875 -0.125q0.125 -0.578125 0.40625 -0.9375q0.296875 -0.375 0.828125 -0.5625q0.546875 -0.203125 1.25 -0.203125q0.71875 0 1.15625 0.171875q0.4375 0.171875 0.640625 0.421875q0.21875 0.25 0.296875 0.640625q0.046875 0.234375 0.046875 0.859375l0 1.25q0 1.296875 0.0625 1.65625q0.0625 0.34375 0.234375 0.65625l-0.96875 0q-0.15625 -0.296875 -0.1875 -0.6875zm-0.078125 -2.078125q-0.515625 0.203125 -1.53125 0.34375q-0.578125 0.078125 -0.828125 0.1875q-0.234375 0.109375 -0.359375 0.3125q-0.125 0.1875 -0.125 0.4375q0 0.375 0.28125 0.625q0.28125 0.25 0.828125 0.25q0.53125 0 0.953125 -0.234375q0.421875 -0.234375 0.625 -0.65625q0.15625 -0.3125 0.15625 -0.9375l0 -0.328125zm2.3952484 -3.78125l0 -1.078125l0.9375 0l0 1.078125l-0.9375 0zm0 6.546875l0 -5.53125l0.9375 0l0 5.53125l-0.9375 0zm2.3674774 0l0 -5.53125l0.84375 0l0 0.796875q0.609375 -0.921875 1.75 -0.921875q0.5 0 0.921875 0.1875q0.421875 0.171875 0.625 0.46875q0.21875 0.296875 0.296875 0.6875q0.046875 0.265625 0.046875 0.921875l0 3.390625l-0.9375 0l0 -3.359375q0 -0.578125 -0.109375 -0.859375q-0.109375 -0.28125 -0.390625 -0.453125q-0.265625 -0.171875 -0.640625 -0.171875q-0.59375 0 -1.03125 0.390625q-0.4375 0.375 -0.4375 1.4375l0 3.015625l-0.9375 0z" fill-rule="nonzero"/><path fill="#626b73" d="m203.07289 151.94669l220.03151 0l0 14.173218l-220.03151 0z" fill-rule="evenodd"/><path stroke="#666666" stroke-width="1.0" stroke-linejoin="round" stroke-linecap="butt" d="m203.07289 151.94669l220.03151 0l0 14.173218l-220.03151 0z" fill-rule="evenodd"/><path fill="#ffffff" d="m216.35414 162.7733l0 -0.703125q-0.515625 0.828125 -1.546875 0.828125q-0.65625 0 -1.21875 -0.359375q-0.546875 -0.375 -0.859375 -1.015625q-0.296875 -0.65625 -0.296875 -1.5q0 -0.828125 0.28125 -1.5q0.28125 -0.6875 0.828125 -1.046875q0.546875 -0.359375 1.234375 -0.359375q0.5 0 0.890625 0.21875q0.390625 0.203125 0.625 0.546875l0 -2.734375l0.9375 0l0 7.625l-0.875 0zm-2.953125 -2.75q0 1.046875 0.4375 1.578125q0.453125 0.53125 1.0625 0.53125q0.609375 0 1.03125 -0.5q0.4375 -0.515625 0.4375 -1.53125q0 -1.140625 -0.4375 -1.671875q-0.4375 -0.53125 -1.078125 -0.53125q-0.609375 0 -1.03125 0.515625q-0.421875 0.5 -0.421875 1.609375zm9.082748 0.96875l0.96875 0.125q-0.234375 0.84375 -0.859375 1.3125q-0.609375 0.46875 -1.578125 0.46875q-1.203125 0 -1.921875 -0.75q-0.703125 -0.75 -0.703125 -2.09375q0 -1.390625 0.71875 -2.15625q0.71875 -0.78125 1.859375 -0.78125q1.109375 0 1.8125 0.765625q0.703125 0.75 0.703125 2.125q0 0.078125 0 0.234375l-4.125 0q0.046875 0.921875 0.515625 1.40625q0.46875 0.484375 1.15625 0.484375q0.515625 0 0.875 -0.265625q0.359375 -0.28125 0.578125 -0.875zm-3.078125 -1.515625l3.09375 0q-0.0625 -0.6875 -0.359375 -1.046875q-0.453125 -0.53125 -1.15625 -0.53125q-0.640625 0 -1.09375 0.4375q-0.4375 0.421875 -0.484375 1.140625zm6.7546234 3.296875l-2.09375 -5.53125l0.984375 0l1.1875 3.3125q0.1875 0.53125 0.359375 1.109375q0.109375 -0.4375 0.34375 -1.046875l1.21875 -3.375l0.96875 0l-2.09375 5.53125l-0.875 0zm3.09375 0.125l2.21875 -7.890625l0.734375 0l-2.203125 7.890625l-0.75 0zm3.8825226 -0.125l0 -4.796875l-0.828125 0l0 -0.734375l0.828125 0l0 -0.578125q0 -0.5625 0.109375 -0.828125q0.125 -0.375 0.46875 -0.59375q0.34375 -0.234375 0.953125 -0.234375q0.390625 0 0.875 0.09375l-0.140625 0.828125q-0.296875 -0.0625 -0.546875 -0.0625q-0.421875 0 -0.609375 0.1875q-0.171875 0.1875 -0.171875 0.6875l0 0.5l1.078125 0l0 0.734375l-1.078125 0l0 4.796875l-0.9375 0zm6.5231476 -1.78125l0.96875 0.125q-0.234375 0.84375 -0.859375 1.3125q-0.609375 0.46875 -1.578125 0.46875q-1.203125 0 -1.921875 -0.75q-0.703125 -0.75 -0.703125 -2.09375q0 -1.390625 0.71875 -2.15625q0.71875 -0.78125 1.859375 -0.78125q1.109375 0 1.8125 0.765625q0.703125 0.75 0.703125 2.125q0 0.078125 0 0.234375l-4.125 0q0.046875 0.921875 0.515625 1.40625q0.46875 0.484375 1.15625 0.484375q0.515625 0 0.875 -0.265625q0.359375 -0.28125 0.578125 -0.875zm-3.078125 -1.515625l3.09375 0q-0.0625 -0.6875 -0.359375 -1.046875q-0.453125 -0.53125 -1.15625 -0.53125q-0.640625 0 -1.09375 0.4375q-0.4375 0.421875 -0.484375 1.140625zm8.832748 2.609375q-0.53125 0.453125 -1.015625 0.640625q-0.46875 0.171875 -1.015625 0.171875q-0.921875 0 -1.40625 -0.4375q-0.484375 -0.453125 -0.484375 -1.140625q0 -0.40625 0.171875 -0.734375q0.1875 -0.34375 0.484375 -0.546875q0.3125 -0.203125 0.6875 -0.3125q0.265625 -0.0625 0.828125 -0.140625q1.125 -0.125 1.671875 -0.3125q0 -0.203125 0 -0.25q0 -0.578125 -0.265625 -0.8125q-0.359375 -0.3125 -1.0625 -0.3125q-0.65625 0 -0.984375 0.234375q-0.3125 0.234375 -0.453125 0.8125l-0.921875 -0.125q0.125 -0.578125 0.40625 -0.9375q0.296875 -0.375 0.828125 -0.5625q0.546875 -0.203125 1.25 -0.203125q0.71875 0 1.15625 0.171875q0.4375 0.171875 0.640625 0.421875q0.21875 0.25 0.296875 0.640625q0.046875 0.234375 0.046875 0.859375l0 1.25q0 1.296875 0.0625 1.65625q0.0625 0.34375 0.234375 0.65625l-0.96875 0q-0.15625 -0.296875 -0.1875 -0.6875zm-0.078125 -2.078125q-0.515625 0.203125 -1.53125 0.34375q-0.578125 0.078125 -0.828125 0.1875q-0.234375 0.109375 -0.359375 0.3125q-0.125 0.1875 -0.125 0.4375q0 0.375 0.28125 0.625q0.28125 0.25 0.828125 0.25q0.53125 0 0.953125 -0.234375q0.421875 -0.234375 0.625 -0.65625q0.15625 -0.3125 0.15625 -0.9375l0 -0.328125zm4.4421234 1.921875l0.125 0.828125q-0.390625 0.09375 -0.703125 0.09375q-0.5 0 -0.78125 -0.15625q-0.28125 -0.171875 -0.40625 -0.4375q-0.109375 -0.265625 -0.109375 -1.109375l0 -3.171875l-0.6875 0l0 -0.734375l0.6875 0l0 -1.359375l0.9375 -0.5625l0 1.921875l0.9375 0l0 0.734375l-0.9375 0l0 3.234375q0 0.390625 0.046875 0.515625q0.046875 0.109375 0.15625 0.1875q0.109375 0.0625 0.328125 0.0625q0.15625 0 0.40625 -0.046875zm4.5387726 0.84375l0 -0.8125q-0.65625 0.9375 -1.75 0.9375q-0.5 0 -0.921875 -0.1875q-0.421875 -0.1875 -0.625 -0.46875q-0.203125 -0.28125 -0.296875 -0.703125q-0.046875 -0.265625 -0.046875 -0.875l0 -3.421875l0.9375 0l0 3.0625q0 0.734375 0.046875 1.0q0.09375 0.359375 0.375 0.578125q0.296875 0.203125 0.703125 0.203125q0.421875 0 0.796875 -0.203125q0.375 -0.21875 0.515625 -0.59375q0.15625 -0.375 0.15625 -1.078125l0 -2.96875l0.9375 0l0 5.53125l-0.828125 0zm2.2858887 0l0 -5.53125l0.84375 0l0 0.84375q0.328125 -0.59375 0.59375 -0.78125q0.28125 -0.1875 0.609375 -0.1875q0.46875 0 0.953125 0.3125l-0.3125 0.859375q-0.34375 -0.203125 -0.6875 -0.203125q-0.3125 0 -0.5625 0.1875q-0.234375 0.1875 -0.34375 0.515625q-0.15625 0.5 -0.15625 1.09375l0 2.890625l-0.9375 0zm7.3454895 -1.78125l0.96875 0.125q-0.234375 0.84375 -0.859375 1.3125q-0.609375 0.46875 -1.578125 0.46875q-1.203125 0 -1.921875 -0.75q-0.703125 -0.75 -0.703125 -2.09375q0 -1.390625 0.71875 -2.15625q0.71875 -0.78125 1.859375 -0.78125q1.109375 0 1.8125 0.765625q0.703125 0.75 0.703125 2.125q0 0.078125 0 0.234375l-4.125 0q0.046875 0.921875 0.515625 1.40625q0.46875 0.484375 1.15625 0.484375q0.515625 0 0.875 -0.265625q0.359375 -0.28125 0.578125 -0.875zm-3.078125 -1.515625l3.09375 0q-0.0625 -0.6875 -0.359375 -1.046875q-0.453125 -0.53125 -1.15625 -0.53125q-0.640625 0 -1.09375 0.4375q-0.4375 0.421875 -0.484375 1.140625zm4.863983 1.0l0 -0.9375l2.875 0l0 0.9375l-2.875 0zm7.5173645 1.609375q-0.53125 0.453125 -1.015625 0.640625q-0.46875 0.171875 -1.015625 0.171875q-0.921875 0 -1.40625 -0.4375q-0.484375 -0.453125 -0.484375 -1.140625q0 -0.40625 0.171875 -0.734375q0.1875 -0.34375 0.484375 -0.546875q0.3125 -0.203125 0.6875 -0.3125q0.265625 -0.0625 0.828125 -0.140625q1.125 -0.125 1.671875 -0.3125q0 -0.203125 0 -0.25q0 -0.578125 -0.265625 -0.8125q-0.359375 -0.3125 -1.0625 -0.3125q-0.65625 0 -0.984375 0.234375q-0.3125 0.234375 -0.453125 0.8125l-0.921875 -0.125q0.125 -0.578125 0.40625 -0.9375q0.296875 -0.375 0.828125 -0.5625q0.546875 -0.203125 1.25 -0.203125q0.71875 0 1.15625 0.171875q0.4375 0.171875 0.640625 0.421875q0.21875 0.25 0.296875 0.640625q0.046875 0.234375 0.046875 0.859375l0 1.25q0 1.296875 0.0625 1.65625q0.0625 0.34375 0.234375 0.65625l-0.96875 0q-0.15625 -0.296875 -0.1875 -0.6875zm-0.078125 -2.078125q-0.515625 0.203125 -1.53125 0.34375q-0.578125 0.078125 -0.828125 0.1875q-0.234375 0.109375 -0.359375 0.3125q-0.125 0.1875 -0.125 0.4375q0 0.375 0.28125 0.625q0.28125 0.25 0.828125 0.25q0.53125 0 0.953125 -0.234375q0.421875 -0.234375 0.625 -0.65625q0.15625 -0.3125 0.15625 -0.9375l0 -0.328125zm5.6608887 2.765625l-0.9375 0l0 -5.96875q-0.34375 0.328125 -0.890625 0.65625q-0.546875 0.3125 -0.984375 0.46875l0 -0.90625q0.796875 -0.359375 1.375 -0.890625q0.59375 -0.53125 0.828125 -1.015625l0.609375 0l0 7.65625z" fill-rule="nonzero"/><path fill="#990000" d="m393.45135 280.37796l115.24411 0l0 14.173218l-115.24411 0z" fill-rule="evenodd"/><path fill="#626b73" d="m203.0732 245.50919l112.44096 0l0 14.173218l-112.44096 0z" fill-rule="evenodd"/><path stroke="#666666" stroke-width="1.0" stroke-linejoin="round" stroke-linecap="butt" d="m203.0732 245.50919l112.44096 0l0 14.173218l-112.44096 0z" fill-rule="evenodd"/><path fill="#ffffff" d="m216.35445 256.33582l0 -0.70314026q-0.515625 0.82814026 -1.546875 0.82814026q-0.65625 0 -1.21875 -0.359375q-0.546875 -0.37501526 -0.859375 -1.0156403q-0.296875 -0.65625 -0.296875 -1.5q0 -0.828125 0.28125 -1.5q0.28125 -0.6875 0.828125 -1.046875q0.546875 -0.359375 1.234375 -0.359375q0.5 0 0.890625 0.21875q0.390625 0.203125 0.625 0.546875l0 -2.734375l0.9375 0l0 7.6250153l-0.875 0zm-2.953125 -2.7500153q0 1.046875 0.4375 1.578125q0.453125 0.53125 1.0625 0.53125q0.609375 0 1.03125 -0.5q0.4375 -0.515625 0.4375 -1.53125q0 -1.140625 -0.4375 -1.671875q-0.4375 -0.53125 -1.078125 -0.53125q-0.609375 0 -1.03125 0.515625q-0.421875 0.5 -0.421875 1.609375zm9.082748 0.96875l0.96875 0.125q-0.234375 0.84375 -0.859375 1.3125q-0.609375 0.46876526 -1.578125 0.46876526q-1.203125 0 -1.921875 -0.75001526q-0.703125 -0.75 -0.703125 -2.09375q0 -1.390625 0.71875 -2.15625q0.71875 -0.78125 1.859375 -0.78125q1.109375 0 1.8125 0.765625q0.703125 0.75 0.703125 2.125q0 0.078125 0 0.234375l-4.125 0q0.046875 0.921875 0.515625 1.40625q0.46875 0.484375 1.15625 0.484375q0.515625 0 0.875 -0.265625q0.359375 -0.28125 0.578125 -0.875zm-3.078125 -1.515625l3.09375 0q-0.0625 -0.6875 -0.359375 -1.046875q-0.453125 -0.53125 -1.15625 -0.53125q-0.640625 0 -1.09375 0.4375q-0.4375 0.421875 -0.484375 1.140625zm6.7546234 3.2968903l-2.09375 -5.5312653l0.984375 0l1.1875 3.3125q0.1875 0.53125 0.359375 1.109375q0.109375 -0.4375 0.34375 -1.046875l1.21875 -3.375l0.96875 0l-2.09375 5.5312653l-0.875 0zm3.09375 0.125l2.21875 -7.8906403l0.734375 0l-2.203125 7.8906403l-0.75 0zm3.6637726 -6.6718903l0 -1.078125l0.9375 0l0 1.078125l-0.9375 0zm0 6.5468903l0 -5.5312653l0.9375 0l0 5.5312653l-0.9375 0zm1.9924774 -1.6562653l0.921875 -0.140625q0.078125 0.5625 0.4375 0.859375q0.359375 0.296875 1.0 0.296875q0.640625 0 0.953125 -0.265625q0.3125 -0.265625 0.3125 -0.625q0 -0.3125 -0.28125 -0.5q-0.1875 -0.125 -0.953125 -0.3125q-1.03125 -0.265625 -1.4375 -0.453125q-0.390625 -0.1875 -0.59375 -0.515625q-0.203125 -0.34375 -0.203125 -0.75q0 -0.359375 0.171875 -0.671875q0.171875 -0.328125 0.453125 -0.53125q0.21875 -0.15625 0.59375 -0.265625q0.390625 -0.125 0.8125 -0.125q0.65625 0 1.140625 0.1875q0.5 0.1875 0.734375 0.515625q0.234375 0.3125 0.3125 0.859375l-0.90625 0.125q-0.0625 -0.4375 -0.375 -0.671875q-0.296875 -0.234375 -0.828125 -0.234375q-0.65625 0 -0.9375 0.21875q-0.265625 0.203125 -0.265625 0.484375q0 0.1875 0.109375 0.328125q0.125 0.15625 0.359375 0.25q0.140625 0.0625 0.828125 0.25q1.0 0.265625 1.390625 0.4375q0.390625 0.15625 0.609375 0.484375q0.234375 0.3125 0.234375 0.796875q0 0.46875 -0.28125 0.890625q-0.265625 0.40626526 -0.78125 0.64064026q-0.515625 0.21875 -1.171875 0.21875q-1.078125 0 -1.640625 -0.4375q-0.5625 -0.45314026 -0.71875 -1.3437653zm5.328125 0l0.921875 -0.140625q0.078125 0.5625 0.4375 0.859375q0.359375 0.296875 1.0 0.296875q0.640625 0 0.953125 -0.265625q0.3125 -0.265625 0.3125 -0.625q0 -0.3125 -0.28125 -0.5q-0.1875 -0.125 -0.953125 -0.3125q-1.03125 -0.265625 -1.4375 -0.453125q-0.390625 -0.1875 -0.59375 -0.515625q-0.203125 -0.34375 -0.203125 -0.75q0 -0.359375 0.171875 -0.671875q0.171875 -0.328125 0.453125 -0.53125q0.21875 -0.15625 0.59375 -0.265625q0.390625 -0.125 0.8125 -0.125q0.65625 0 1.140625 0.1875q0.5 0.1875 0.734375 0.515625q0.234375 0.3125 0.3125 0.859375l-0.90625 0.125q-0.0625 -0.4375 -0.375 -0.671875q-0.296875 -0.234375 -0.828125 -0.234375q-0.65625 0 -0.9375 0.21875q-0.265625 0.203125 -0.265625 0.484375q0 0.1875 0.109375 0.328125q0.125 0.15625 0.359375 0.25q0.140625 0.0625 0.828125 0.25q1.0 0.265625 1.390625 0.4375q0.390625 0.15625 0.609375 0.484375q0.234375 0.3125 0.234375 0.796875q0 0.46875 -0.28125 0.890625q-0.265625 0.40626526 -0.78125 0.64064026q-0.515625 0.21875 -1.171875 0.21875q-1.078125 0 -1.640625 -0.4375q-0.5625 -0.45314026 -0.71875 -1.3437653zm9.328125 1.6562653l0 -0.81251526q-0.65625 0.93751526 -1.75 0.93751526q-0.5 0 -0.921875 -0.1875q-0.421875 -0.1875 -0.625 -0.46876526q-0.203125 -0.28125 -0.296875 -0.703125q-0.046875 -0.265625 -0.046875 -0.875l0 -3.421875l0.9375 0l0 3.0625q0 0.734375 0.046875 1.0q0.09375 0.359375 0.375 0.578125q0.296875 0.203125 0.703125 0.203125q0.421875 0 0.796875 -0.203125q0.375 -0.21875 0.515625 -0.59375q0.15625 -0.375 0.15625 -1.078125l0 -2.96875l0.9375 0l0 5.5312653l-0.828125 0zm6.0827484 -1.7812653l0.96875 0.125q-0.234375 0.84375 -0.859375 1.3125q-0.609375 0.46876526 -1.578125 0.46876526q-1.203125 0 -1.921875 -0.75001526q-0.703125 -0.75 -0.703125 -2.09375q0 -1.390625 0.71875 -2.15625q0.71875 -0.78125 1.859375 -0.78125q1.109375 0 1.8125 0.765625q0.703125 0.75 0.703125 2.125q0 0.078125 0 0.234375l-4.125 0q0.046875 0.921875 0.515625 1.40625q0.46875 0.484375 1.15625 0.484375q0.515625 0 0.875 -0.265625q0.359375 -0.28125 0.578125 -0.875zm-3.078125 -1.515625l3.09375 0q-0.0625 -0.6875 -0.359375 -1.046875q-0.453125 -0.53125 -1.15625 -0.53125q-0.640625 0 -1.09375 0.4375q-0.4375 0.421875 -0.484375 1.140625zm4.8640137 1.0l0 -0.9375l2.875 0l0 0.9375l-2.875 0zm8.5642395 1.390625l0 0.90626526l-5.03125 0q-0.015625 -0.34376526 0.109375 -0.65626526q0.1875 -0.515625 0.609375 -1.015625q0.421875 -0.5 1.234375 -1.140625q1.234375 -1.03125 1.671875 -1.625q0.4375 -0.59375 0.4375 -1.125q0 -0.5625 -0.40625 -0.9375q-0.390625 -0.390625 -1.03125 -0.390625q-0.671875 0 -1.078125 0.40625q-0.40625 0.40625 -0.40625 1.125l-0.96875 -0.09375q0.09375 -1.078125 0.734375 -1.640625q0.65625 -0.5625 1.734375 -0.5625q1.109375 0 1.75 0.609375q0.640625 0.609375 0.640625 1.5q0 0.46875 -0.1875 0.90625q-0.1875 0.4375 -0.625 0.9375q-0.4375 0.484375 -1.453125 1.328125q-0.828125 0.71875 -1.078125 0.96875q-0.234375 0.25 -0.390625 0.5l3.734375 0zm5.926483 0l0 0.90626526l-5.03125 0q-0.015625 -0.34376526 0.109375 -0.65626526q0.1875 -0.515625 0.609375 -1.015625q0.421875 -0.5 1.234375 -1.140625q1.234375 -1.03125 1.671875 -1.625q0.4375 -0.59375 0.4375 -1.125q0 -0.5625 -0.40625 -0.9375q-0.390625 -0.390625 -1.03125 -0.390625q-0.671875 0 -1.078125 0.40625q-0.40625 0.40625 -0.40625 1.125l-0.96875 -0.09375q0.09375 -1.078125 0.734375 -1.640625q0.65625 -0.5625 1.734375 -0.5625q1.109375 0 1.75 0.609375q0.640625 0.609375 0.640625 1.5q0 0.46875 -0.1875 0.90625q-0.1875 0.4375 -0.625 0.9375q-0.4375 0.484375 -1.453125 1.328125q-0.828125 0.71875 -1.078125 0.96875q-0.234375 0.25 -0.390625 0.5l3.734375 0z" fill-rule="nonzero"/><path fill="#000000" fill-opacity="0.0" d="m400.10648 84.2126l101.480316 0l0 45.259842l-101.480316 0z" fill-rule="evenodd"/><path fill="#990000" d="m416.2342 95.87447l2.46875 6.1875l2.484375 -6.1875l1.296875 0l0 7.578125l-1.0 0l0 -2.953125l0.09375 -3.1875l-2.484375 6.140625l-0.765625 0l-2.484375 -6.125l0.09375 3.171875l0 2.953125l-1.0 0l0 -7.578125l1.296875 0zm10.194031 7.6875q-1.140625 0 -1.859375 -0.75q-0.71875 -0.765625 -0.71875 -2.015625l0 -0.171875q0 -0.84375 0.3125 -1.5q0.328125 -0.65625 0.90625 -1.03125q0.578125 -0.375 1.234375 -0.375q1.109375 0 1.71875 0.734375q0.609375 0.71875 0.609375 2.0625l0 0.390625l-3.8125 0q0.015625 0.84375 0.484375 1.359375q0.46875 0.5 1.171875 0.5q0.515625 0 0.859375 -0.203125q0.359375 -0.203125 0.625 -0.546875l0.59375 0.453125q-0.703125 1.09375 -2.125 1.09375zm-0.125 -5.046875q-0.578125 0 -0.96875 0.421875q-0.390625 0.421875 -0.484375 1.1875l2.8125 0l0 -0.078125q-0.046875 -0.734375 -0.40625 -1.125q-0.34375 -0.40625 -0.953125 -0.40625zm6.1611633 0.171875q-0.21875 -0.03125 -0.484375 -0.03125q-0.9375 0 -1.28125 0.796875l0 4.0l-0.953125 0l0 -5.625l0.9375 0l0.015625 0.640625q0.46875 -0.75 1.328125 -0.75q0.28125 0 0.4375 0.078125l0 0.890625zm0.55374146 1.90625q0 -1.3125 0.609375 -2.09375q0.609375 -0.78125 1.609375 -0.78125q1.03125 0 1.609375 0.734375l0.046875 -0.625l0.875 0l0 5.484375q0 1.09375 -0.65625 1.71875q-0.640625 0.640625 -1.734375 0.640625q-0.59375 0 -1.1875 -0.265625q-0.578125 -0.25 -0.890625 -0.703125l0.5 -0.578125q0.625 0.765625 1.515625 0.765625q0.703125 0 1.09375 -0.40625q0.390625 -0.390625 0.390625 -1.109375l0 -0.484375q-0.578125 0.671875 -1.578125 0.671875q-0.984375 0 -1.59375 -0.796875q-0.609375 -0.796875 -0.609375 -2.171875zm0.96875 0.109375q0 0.953125 0.390625 1.5q0.390625 0.53125 1.09375 0.53125q0.90625 0 1.328125 -0.828125l0 -2.5625q-0.4375 -0.8125 -1.328125 -0.8125q-0.6875 0 -1.09375 0.546875q-0.390625 0.546875 -0.390625 1.625zm7.572296 2.859375q-1.140625 0 -1.859375 -0.75q-0.71875 -0.765625 -0.71875 -2.015625l0 -0.171875q0 -0.84375 0.3125 -1.5q0.328125 -0.65625 0.90625 -1.03125q0.578125 -0.375 1.234375 -0.375q1.109375 0 1.71875 0.734375q0.609375 0.71875 0.609375 2.0625l0 0.390625l-3.8125 0q0.015625 0.84375 0.484375 1.359375q0.46875 0.5 1.171875 0.5q0.515625 0 0.859375 -0.203125q0.359375 -0.203125 0.625 -0.546875l0.59375 0.453125q-0.703125 1.09375 -2.125 1.09375zm-0.125 -5.046875q-0.578125 0 -0.96875 0.421875q-0.390625 0.421875 -0.484375 1.1875l2.8125 0l0 -0.078125q-0.046875 -0.734375 -0.40625 -1.125q-0.34375 -0.40625 -0.953125 -0.40625zm9.002319 1.875l-1.78125 0l0 3.0625l-1.0 0l0 -7.578125l2.5 0q1.28125 0 1.96875 0.59375q0.703125 0.578125 0.703125 1.6875q0 0.703125 -0.390625 1.234375q-0.375 0.53125 -1.0625 0.78125l1.78125 3.21875l0 0.0625l-1.078125 0l-1.640625 -3.0625zm-1.78125 -0.8125l1.53125 0q0.75 0 1.1875 -0.390625q0.4375 -0.390625 0.4375 -1.03125q0 -0.703125 -0.421875 -1.078125q-0.40625 -0.375 -1.203125 -0.375l-1.53125 0l0 2.875zm7.7487793 3.984375q-1.140625 0 -1.859375 -0.75q-0.71875 -0.765625 -0.71875 -2.015625l0 -0.171875q0 -0.84375 0.3125 -1.5q0.328125 -0.65625 0.90625 -1.03125q0.578125 -0.375 1.234375 -0.375q1.109375 0 1.71875 0.734375q0.609375 0.71875 0.609375 2.0625l0 0.390625l-3.8125 0q0.015625 0.84375 0.484375 1.359375q0.46875 0.5 1.171875 0.5q0.515625 0 0.859375 -0.203125q0.359375 -0.203125 0.625 -0.546875l0.59375 0.453125q-0.703125 1.09375 -2.125 1.09375zm-0.125 -5.046875q-0.578125 0 -0.96875 0.421875q-0.390625 0.421875 -0.484375 1.1875l2.8125 0l0 -0.078125q-0.046875 -0.734375 -0.40625 -1.125q-0.34375 -0.40625 -0.953125 -0.40625zm3.2080383 2.078125q0 -1.328125 0.609375 -2.09375q0.609375 -0.78125 1.625 -0.78125q1.0 0 1.578125 0.671875l0.046875 -0.5625l0.875 0l0 7.796875l-0.953125 0l0 -2.6875q-0.59375 0.625 -1.5625 0.625q-1.015625 0 -1.625 -0.796875q-0.59375 -0.796875 -0.59375 -2.109375l0 -0.0625zm0.953125 0.109375q0 0.96875 0.40625 1.515625q0.421875 0.546875 1.109375 0.546875q0.859375 0 1.3125 -0.75l0 -2.765625q-0.46875 -0.734375 -1.3125 -0.734375q-0.6875 0 -1.109375 0.5625q-0.40625 0.546875 -0.40625 1.625zm8.80658 2.1875q-0.5625 0.671875 -1.640625 0.671875q-0.90625 0 -1.375 -0.515625q-0.46875 -0.53125 -0.484375 -1.5625l0 -3.65625l0.96875 0l0 3.625q0 1.28125 1.03125 1.28125q1.109375 0 1.46875 -0.8125l0 -4.09375l0.96875 0l0 5.625l-0.921875 0l-0.015625 -0.5625zm4.7338257 0.671875q-1.140625 0 -1.859375 -0.75q-0.71875 -0.765625 -0.71875 -2.015625l0 -0.171875q0 -0.84375 0.3125 -1.5q0.328125 -0.65625 0.90625 -1.03125q0.578125 -0.375 1.234375 -0.375q1.109375 0 1.71875 0.734375q0.609375 0.71875 0.609375 2.0625l0 0.390625l-3.8125 0q0.015625 0.84375 0.484375 1.359375q0.46875 0.5 1.171875 0.5q0.515625 0 0.859375 -0.203125q0.359375 -0.203125 0.625 -0.546875l0.59375 0.453125q-0.703125 1.09375 -2.125 1.09375zm-0.125 -5.046875q-0.578125 0 -0.96875 0.421875q-0.390625 0.421875 -0.484375 1.1875l2.8125 0l0 -0.078125q-0.046875 -0.734375 -0.40625 -1.125q-0.34375 -0.40625 -0.953125 -0.40625zm6.7080383 3.4375q0 -0.390625 -0.296875 -0.59375q-0.28125 -0.21875 -1.015625 -0.375q-0.734375 -0.15625 -1.171875 -0.375q-0.421875 -0.21875 -0.625 -0.515625q-0.203125 -0.3125 -0.203125 -0.71875q0 -0.703125 0.578125 -1.171875q0.59375 -0.484375 1.5 -0.484375q0.953125 0 1.546875 0.5q0.609375 0.484375 0.609375 1.265625l-0.96875 0q0 -0.40625 -0.34375 -0.6875q-0.328125 -0.28125 -0.84375 -0.28125q-0.515625 0 -0.8125 0.234375q-0.296875 0.21875 -0.296875 0.59375q0 0.34375 0.265625 0.53125q0.28125 0.171875 1.0 0.328125q0.71875 0.15625 1.15625 0.390625q0.453125 0.21875 0.671875 0.53125q0.21875 0.3125 0.21875 0.765625q0 0.75 -0.609375 1.21875q-0.59375 0.453125 -1.5625 0.453125q-0.671875 0 -1.203125 -0.234375q-0.515625 -0.25 -0.8125 -0.671875q-0.28125 -0.4375 -0.28125 -0.9375l0.953125 0q0.03125 0.484375 0.390625 0.765625q0.359375 0.28125 0.953125 0.28125q0.546875 0 0.875 -0.21875q0.328125 -0.21875 0.328125 -0.59375zm3.525879 -5.5l0 1.375l1.046875 0l0 0.734375l-1.046875 0l0 3.5q0 0.328125 0.140625 0.5q0.140625 0.171875 0.484375 0.171875q0.15625 0 0.453125 -0.0625l0 0.78125q-0.375 0.109375 -0.734375 0.109375q-0.640625 0 -0.96875 -0.390625q-0.328125 -0.390625 -0.328125 -1.109375l0 -3.5l-1.03125 0l0 -0.734375l1.03125 0l0 -1.375l0.953125 0zm2.152832 8.515625l-0.546875 -0.375q0.484375 -0.6875 0.5 -1.40625l0 -0.875l0.953125 0l0 0.75q0 0.53125 -0.265625 1.046875q-0.25 0.53125 -0.640625 0.859375z" fill-rule="nonzero"/><path fill="#990000" d="m426.8764 113.84635q-0.140625 1.203125 -0.890625 1.859375q-0.75 0.65625 -1.984375 0.65625q-1.34375 0 -2.15625 -0.96875q-0.796875 -0.96875 -0.796875 -2.578125l0 -0.71875q0 -1.0625 0.375 -1.859375q0.375 -0.8125 1.0625 -1.234375q0.6875 -0.4375 1.609375 -0.4375q1.203125 0 1.921875 0.6875q0.734375 0.671875 0.859375 1.859375l-1.0 0q-0.140625 -0.90625 -0.578125 -1.3125q-0.421875 -0.40625 -1.203125 -0.40625q-0.96875 0 -1.515625 0.71875q-0.53125 0.703125 -0.53125 2.0l0 0.734375q0 1.234375 0.515625 1.96875q0.515625 0.71875 1.4375 0.71875q0.828125 0 1.265625 -0.375q0.453125 -0.375 0.609375 -1.3125l1.0 0zm0.9515686 -0.453125q0 -0.828125 0.328125 -1.484375q0.328125 -0.671875 0.90625 -1.03125q0.578125 -0.359375 1.328125 -0.359375q1.140625 0 1.84375 0.796875q0.71875 0.796875 0.71875 2.125l0 0.0625q0 0.8125 -0.3125 1.46875q-0.3125 0.65625 -0.90625 1.03125q-0.578125 0.359375 -1.34375 0.359375q-1.140625 0 -1.859375 -0.796875q-0.703125 -0.796875 -0.703125 -2.109375l0 -0.0625zm0.96875 0.109375q0 0.9375 0.4375 1.5q0.4375 0.5625 1.15625 0.5625q0.734375 0 1.171875 -0.5625q0.4375 -0.578125 0.4375 -1.609375q0 -0.9375 -0.453125 -1.5q-0.4375 -0.578125 -1.15625 -0.578125q-0.71875 0 -1.15625 0.5625q-0.4375 0.5625 -0.4375 1.625zm5.1398926 -0.109375q0 -1.296875 0.609375 -2.078125q0.609375 -0.796875 1.609375 -0.796875q0.984375 0 1.5625 0.671875l0 -2.9375l0.96875 0l0 8.0l-0.890625 0l-0.046875 -0.609375q-0.578125 0.71875 -1.609375 0.71875q-0.96875 0 -1.59375 -0.796875q-0.609375 -0.8125 -0.609375 -2.09375l0 -0.078125zm0.953125 0.109375q0 0.953125 0.390625 1.5q0.40625 0.53125 1.09375 0.53125q0.921875 0 1.34375 -0.8125l0 -2.59375q-0.4375 -0.796875 -1.328125 -0.796875q-0.703125 0 -1.109375 0.546875q-0.390625 0.546875 -0.390625 1.625zm7.61911 2.859375q-1.140625 0 -1.859375 -0.75q-0.71875 -0.765625 -0.71875 -2.015625l0 -0.171875q0 -0.84375 0.3125 -1.5q0.328125 -0.65625 0.90625 -1.03125q0.578125 -0.375 1.234375 -0.375q1.109375 0 1.71875 0.734375q0.609375 0.71875 0.609375 2.0625l0 0.390625l-3.8125 0q0.015625 0.84375 0.484375 1.359375q0.46875 0.5 1.171875 0.5q0.515625 0 0.859375 -0.203125q0.359375 -0.203125 0.625 -0.546875l0.59375 0.453125q-0.703125 1.09375 -2.125 1.09375zm-0.125 -5.046875q-0.578125 0 -0.96875 0.421875q-0.390625 0.421875 -0.484375 1.1875l2.8125 0l0 -0.078125q-0.046875 -0.734375 -0.40625 -1.125q-0.34375 -0.40625 -0.953125 -0.40625zm9.002319 1.875l-1.78125 0l0 3.0625l-1.0 0l0 -7.578125l2.5 0q1.28125 0 1.96875 0.59375q0.703125 0.578125 0.703125 1.6875q0 0.703125 -0.390625 1.234375q-0.375 0.53125 -1.0625 0.78125l1.78125 3.21875l0 0.0625l-1.078125 0l-1.640625 -3.0625zm-1.78125 -0.8125l1.53125 0q0.75 0 1.1875 -0.390625q0.4375 -0.390625 0.4375 -1.03125q0 -0.703125 -0.421875 -1.078125q-0.40625 -0.375 -1.203125 -0.375l-1.53125 0l0 2.875zm7.74881 3.984375q-1.140625 0 -1.859375 -0.75q-0.71875 -0.765625 -0.71875 -2.015625l0 -0.171875q0 -0.84375 0.3125 -1.5q0.328125 -0.65625 0.90625 -1.03125q0.578125 -0.375 1.234375 -0.375q1.109375 0 1.71875 0.734375q0.609375 0.71875 0.609375 2.0625l0 0.390625l-3.8125 0q0.015625 0.84375 0.484375 1.359375q0.46875 0.5 1.171875 0.5q0.515625 0 0.859375 -0.203125q0.359375 -0.203125 0.625 -0.546875l0.59375 0.453125q-0.703125 1.09375 -2.125 1.09375zm-0.125 -5.046875q-0.578125 0 -0.96875 0.421875q-0.390625 0.421875 -0.484375 1.1875l2.8125 0l0 -0.078125q-0.046875 -0.734375 -0.40625 -1.125q-0.34375 -0.40625 -0.953125 -0.40625zm5.2340393 3.625l1.390625 -4.3125l0.984375 0l-2.03125 5.625l-0.71875 0l-2.046875 -5.625l0.984375 0l1.4375 4.3125zm4.349121 1.3125l-0.96875 0l0 -5.625l0.96875 0l0 5.625zm-1.046875 -7.125q0 -0.234375 0.140625 -0.390625q0.140625 -0.171875 0.421875 -0.171875q0.28125 0 0.421875 0.171875q0.15625 0.15625 0.15625 0.390625q0 0.234375 -0.15625 0.390625q-0.140625 0.15625 -0.421875 0.15625q-0.28125 0 -0.421875 -0.15625q-0.140625 -0.15625 -0.140625 -0.390625zm4.914154 7.234375q-1.140625 0 -1.859375 -0.75q-0.71875 -0.765625 -0.71875 -2.015625l0 -0.171875q0 -0.84375 0.3125 -1.5q0.328125 -0.65625 0.90625 -1.03125q0.578125 -0.375 1.234375 -0.375q1.109375 0 1.71875 0.734375q0.609375 0.71875 0.609375 2.0625l0 0.390625l-3.8125 0q0.015625 0.84375 0.484375 1.359375q0.46875 0.5 1.171875 0.5q0.515625 0 0.859375 -0.203125q0.359375 -0.203125 0.625 -0.546875l0.59375 0.453125q-0.703125 1.09375 -2.125 1.09375zm-0.125 -5.046875q-0.578125 0 -0.96875 0.421875q-0.390625 0.421875 -0.484375 1.1875l2.8125 0l0 -0.078125q-0.046875 -0.734375 -0.40625 -1.125q-0.34375 -0.40625 -0.953125 -0.40625zm8.426758 3.609375l1.078125 -4.296875l0.96875 0l-1.640625 5.625l-0.78125 0l-1.375 -4.265625l-1.328125 4.265625l-0.78125 0l-1.640625 -5.625l0.96875 0l1.109375 4.203125l1.296875 -4.203125l0.78125 0l1.34375 4.296875z" fill-rule="nonzero"/><path fill="#b85741" d="m462.50482 127.64714l-13.590546 14.173233l-13.590546 -14.173233z" fill-rule="evenodd"/><path fill="#b45f06" d="m92.95513 347.28262l282.70865 0l0 14.173248l-282.70865 0z" fill-rule="evenodd"/><path fill="#ffffff" d="m102.28326 356.453l0.921875 -0.140625q0.078125 0.5625 0.4375 0.859375q0.359375 0.296875 1.0 0.296875q0.640625 0 0.953125 -0.265625q0.3125 -0.265625 0.3125 -0.625q0 -0.3125 -0.28125 -0.5q-0.1875 -0.125 -0.953125 -0.3125q-1.03125 -0.265625 -1.4375 -0.453125q-0.390625 -0.1875 -0.59375 -0.515625q-0.203125 -0.34375 -0.203125 -0.75q0 -0.359375 0.171875 -0.671875q0.171875 -0.328125 0.453125 -0.53125q0.21875 -0.15625 0.59375 -0.265625q0.390625 -0.125 0.8125 -0.125q0.65625 0 1.140625 0.1875q0.5 0.1875 0.734375 0.515625q0.234375 0.3125 0.3125 0.859375l-0.90625 0.125q-0.0625 -0.4375 -0.375 -0.671875q-0.296875 -0.234375 -0.828125 -0.234375q-0.65625 0 -0.9375 0.21875q-0.265625 0.203125 -0.265625 0.484375q0 0.1875 0.109375 0.328125q0.125 0.15625 0.359375 0.25q0.140625 0.0625 0.828125 0.25q1.0 0.265625 1.390625 0.4375q0.390625 0.15625 0.609375 0.484375q0.234375 0.3125 0.234375 0.796875q0 0.46875 -0.28125 0.890625q-0.265625 0.40625 -0.78125 0.640625q-0.515625 0.21875 -1.171875 0.21875q-1.078125 0 -1.640625 -0.4375q-0.5625 -0.453125 -0.71875 -1.34375zm7.75 0.8125l0.125 0.828125q-0.390625 0.09375 -0.703125 0.09375q-0.5 0 -0.78125 -0.15625q-0.28125 -0.171875 -0.40625 -0.4375q-0.109375 -0.265625 -0.109375 -1.109375l0 -3.171875l-0.6875 0l0 -0.734375l0.6875 0l0 -1.359375l0.9375 -0.5625l0 1.921875l0.9375 0l0 0.734375l-0.9375 0l0 3.234375q0 0.390625 0.046875 0.515625q0.046875 0.109375 0.15625 0.1875q0.109375 0.0625 0.328125 0.0625q0.15625 0 0.40625 -0.046875zm4.5231476 0.15625q-0.53125 0.453125 -1.015625 0.640625q-0.46875 0.171875 -1.015625 0.171875q-0.921875 0 -1.40625 -0.4375q-0.484375 -0.453125 -0.484375 -1.140625q0 -0.40625 0.171875 -0.734375q0.1875 -0.34375 0.484375 -0.546875q0.3125 -0.203125 0.6875 -0.3125q0.265625 -0.0625 0.828125 -0.140625q1.125 -0.125 1.671875 -0.3125q0 -0.203125 0 -0.25q0 -0.578125 -0.265625 -0.8125q-0.359375 -0.3125 -1.0625 -0.3125q-0.65625 0 -0.984375 0.234375q-0.3125 0.234375 -0.453125 0.8125l-0.921875 -0.125q0.125 -0.578125 0.40625 -0.9375q0.296875 -0.375 0.828125 -0.5625q0.546875 -0.203125 1.25 -0.203125q0.71875 0 1.15625 0.171875q0.4375 0.171875 0.640625 0.421875q0.21875 0.25 0.296875 0.640625q0.046875 0.234375 0.046875 0.859375l0 1.25q0 1.296875 0.0625 1.65625q0.0625 0.34375 0.234375 0.65625l-0.96875 0q-0.15625 -0.296875 -0.1875 -0.6875zm-0.078125 -2.078125q-0.515625 0.203125 -1.53125 0.34375q-0.578125 0.078125 -0.828125 0.1875q-0.234375 0.109375 -0.359375 0.3125q-0.125 0.1875 -0.125 0.4375q0 0.375 0.28125 0.625q0.28125 0.25 0.828125 0.25q0.53125 0 0.953125 -0.234375q0.421875 -0.234375 0.625 -0.65625q0.15625 -0.3125 0.15625 -0.9375l0 -0.328125zm2.2233734 3.21875l0.90625 0.140625q0.0625 0.421875 0.328125 0.609375q0.34375 0.265625 0.9375 0.265625q0.65625 0 1.0 -0.265625q0.359375 -0.25 0.484375 -0.71875q0.078125 -0.296875 0.078125 -1.203125q-0.625 0.71875 -1.53125 0.71875q-1.140625 0 -1.765625 -0.8125q-0.625 -0.828125 -0.625 -1.984375q0 -0.78125 0.28125 -1.453125q0.296875 -0.671875 0.828125 -1.03125q0.546875 -0.375 1.28125 -0.375q0.984375 0 1.609375 0.796875l0 -0.671875l0.875 0l0 4.78125q0 1.296875 -0.265625 1.828125q-0.265625 0.546875 -0.84375 0.859375q-0.5625 0.3125 -1.390625 0.3125q-0.984375 0 -1.59375 -0.453125q-0.609375 -0.4375 -0.59375 -1.34375zm0.78125 -3.3125q0 1.078125 0.421875 1.578125q0.4375 0.5 1.078125 0.5q0.65625 0 1.09375 -0.484375q0.4375 -0.5 0.4375 -1.5625q0 -1.015625 -0.453125 -1.53125q-0.453125 -0.515625 -1.09375 -0.515625q-0.609375 0 -1.046875 0.515625q-0.4375 0.5 -0.4375 1.5zm5.3171234 -3.6875l0 -1.078125l0.9375 0l0 1.078125l-0.9375 0zm0 6.546875l0 -5.53125l0.9375 0l0 5.53125l-0.9375 0zm2.3674774 0l0 -5.53125l0.84375 0l0 0.796875q0.609375 -0.921875 1.75 -0.921875q0.5000076 0 0.9218826 0.1875q0.421875 0.171875 0.625 0.46875q0.21875 0.296875 0.296875 0.6875q0.046875 0.265625 0.046875 0.921875l0 3.390625l-0.9375 0l0 -3.359375q0 -0.578125 -0.109375 -0.859375q-0.109375 -0.28125 -0.390625 -0.453125q-0.26563263 -0.171875 -0.6406326 -0.171875q-0.59375 0 -1.03125 0.390625q-0.4375 0.375 -0.4375 1.4375l0 3.015625l-0.9375 0zm5.754631 0.453125l0.90625 0.140625q0.0625 0.421875 0.328125 0.609375q0.34375 0.265625 0.9375 0.265625q0.65625 0 1.0 -0.265625q0.359375 -0.25 0.484375 -0.71875q0.078125 -0.296875 0.078125 -1.203125q-0.625 0.71875 -1.53125 0.71875q-1.140625 0 -1.765625 -0.8125q-0.625 -0.828125 -0.625 -1.984375q0 -0.78125 0.28125 -1.453125q0.296875 -0.671875 0.828125 -1.03125q0.546875 -0.375 1.28125 -0.375q0.984375 0 1.609375 0.796875l0 -0.671875l0.875 0l0 4.78125q0 1.296875 -0.265625 1.828125q-0.265625 0.546875 -0.84375 0.859375q-0.5625 0.3125 -1.390625 0.3125q-0.984375 0 -1.59375 -0.453125q-0.609375 -0.4375 -0.59375 -1.34375zm0.78125 -3.3125q0 1.078125 0.421875 1.578125q0.4375 0.5 1.078125 0.5q0.65625 0 1.09375 -0.484375q0.4375 -0.5 0.4375 -1.5625q0 -1.015625 -0.453125 -1.53125q-0.453125 -0.515625 -1.09375 -0.515625q-0.609375 0 -1.046875 0.515625q-0.4375 0.5 -0.4375 1.5z" fill-rule="nonzero"/><path fill="#b45f06" d="m374.25684 347.28262l378.48816 0l0 14.173248l-378.48816 0z" fill-rule="evenodd"/><path fill="#000000" fill-opacity="0.0" d="m464.9803 288.38773l191.62207 0l0 32.314972l-191.62207 0z" fill-rule="evenodd"/><path fill="#b85741" d="m533.95404 300.87772l-2.4375 0l0 6.75l-0.984375 0l0 -6.75l-2.4375 0l0 -0.828125l5.859375 0l0 0.828125zm2.7958374 6.859375q-1.140625 0 -1.859375 -0.75q-0.71875 -0.765625 -0.71875 -2.015625l0 -0.171875q0 -0.84375 0.3125 -1.5q0.328125 -0.65625 0.90625 -1.03125q0.578125 -0.375 1.234375 -0.375q1.109375 0 1.71875 0.734375q0.609375 0.71875 0.609375 2.0625l0 0.390625l-3.8125 0q0.015625 0.84375 0.484375 1.359375q0.46875 0.5 1.171875 0.5q0.515625 0 0.859375 -0.203125q0.359375 -0.203125 0.625 -0.546875l0.59375 0.453125q-0.703125 1.09375 -2.125 1.09375zm-0.125 -5.046875q-0.578125 0 -0.96875 0.421875q-0.390625 0.421875 -0.484375 1.1875l2.8125 0l0 -0.078125q-0.046875 -0.734375 -0.40625 -1.125q-0.34375 -0.40625 -0.953125 -0.40625zm6.708008 3.4375q0 -0.390625 -0.296875 -0.59375q-0.28125 -0.21875 -1.015625 -0.375q-0.734375 -0.15625 -1.171875 -0.375q-0.421875 -0.21875 -0.625 -0.515625q-0.203125 -0.3125 -0.203125 -0.71875q0 -0.703125 0.578125 -1.171875q0.59375 -0.484375 1.5 -0.484375q0.953125 0 1.546875 0.5q0.609375 0.484375 0.609375 1.265625l-0.96875 0q0 -0.40625 -0.34375 -0.6875q-0.328125 -0.28125 -0.84375 -0.28125q-0.515625 0 -0.8125 0.234375q-0.296875 0.21875 -0.296875 0.59375q0 0.34375 0.265625 0.53125q0.28125 0.171875 1.0 0.328125q0.71875 0.15625 1.15625 0.390625q0.453125 0.21875 0.671875 0.53125q0.21875 0.3125 0.21875 0.765625q0 0.75 -0.609375 1.21875q-0.59375 0.453125 -1.5625 0.453125q-0.671875 0 -1.203125 -0.234375q-0.515625 -0.25 -0.8125 -0.671875q-0.28125 -0.4375 -0.28125 -0.9375l0.953125 0q0.03125 0.484375 0.390625 0.765625q0.359375 0.28125 0.953125 0.28125q0.546875 0 0.875 -0.21875q0.328125 -0.21875 0.328125 -0.59375zm3.525879 -5.5l0 1.375l1.046875 0l0 0.734375l-1.046875 0l0 3.5q0 0.328125 0.140625 0.5q0.140625 0.171875 0.484375 0.171875q0.15625 0 0.453125 -0.0625l0 0.78125q-0.375 0.109375 -0.734375 0.109375q-0.640625 0 -0.96875 -0.390625q-0.328125 -0.390625 -0.328125 -1.109375l0 -3.5l-1.03125 0l0 -0.734375l1.03125 0l0 -1.375l0.953125 0zm4.512268 7.109375q-1.140625 0 -1.859375 -0.75q-0.71875 -0.765625 -0.71875 -2.015625l0 -0.171875q0 -0.84375 0.3125 -1.5q0.328125 -0.65625 0.90625 -1.03125q0.578125 -0.375 1.234375 -0.375q1.109375 0 1.71875 0.734375q0.609375 0.71875 0.609375 2.0625l0 0.390625l-3.8125 0q0.015625 0.84375 0.484375 1.359375q0.46875 0.5 1.171875 0.5q0.515625 0 0.859375 -0.203125q0.359375 -0.203125 0.625 -0.546875l0.59375 0.453125q-0.703125 1.09375 -2.125 1.09375zm-0.125 -5.046875q-0.578125 0 -0.96875 0.421875q-0.390625 0.421875 -0.484375 1.1875l2.8125 0l0 -0.078125q-0.046875 -0.734375 -0.40625 -1.125q-0.34375 -0.40625 -0.953125 -0.40625zm6.161133 0.171875q-0.21875 -0.03125 -0.484375 -0.03125q-0.9375 0 -1.28125 0.796875l0 4.0l-0.953125 0l0 -5.625l0.9375 0l0.015625 0.640625q0.46875 -0.75 1.328125 -0.75q0.28125 0 0.4375 0.078125l0 0.890625zm6.4470215 1.703125l-1.78125 0l0 3.0625l-1.0 0l0 -7.578125l2.5 0q1.28125 0 1.96875 0.59375q0.703125 0.578125 0.703125 1.6875q0 0.703125 -0.390625 1.234375q-0.375 0.53125 -1.0625 0.78125l1.78125 3.21875l0 0.0625l-1.078125 0l-1.640625 -3.0625zm-1.78125 -0.8125l1.53125 0q0.75 0 1.1875 -0.390625q0.4375 -0.390625 0.4375 -1.03125q0 -0.703125 -0.421875 -1.078125q-0.40625 -0.375 -1.203125 -0.375l-1.53125 0l0 2.875zm7.7487793 3.984375q-1.140625 0 -1.859375 -0.75q-0.71875 -0.765625 -0.71875 -2.015625l0 -0.171875q0 -0.84375 0.3125 -1.5q0.328125 -0.65625 0.90625 -1.03125q0.578125 -0.375 1.234375 -0.375q1.109375 0 1.71875 0.734375q0.609375 0.71875 0.609375 2.0625l0 0.390625l-3.8125 0q0.015625 0.84375 0.484375 1.359375q0.46875 0.5 1.171875 0.5q0.515625 0 0.859375 -0.203125q0.359375 -0.203125 0.625 -0.546875l0.59375 0.453125q-0.703125 1.09375 -2.125 1.09375zm-0.125 -5.046875q-0.578125 0 -0.96875 0.421875q-0.390625 0.421875 -0.484375 1.1875l2.8125 0l0 -0.078125q-0.046875 -0.734375 -0.40625 -1.125q-0.34375 -0.40625 -0.953125 -0.40625zm5.23407 3.625l1.390625 -4.3125l0.984375 0l-2.03125 5.625l-0.71875 0l-2.046875 -5.625l0.984375 0l1.4375 4.3125zm4.349121 1.3125l-0.96875 0l0 -5.625l0.96875 0l0 5.625zm-1.046875 -7.125q0 -0.234375 0.140625 -0.390625q0.140625 -0.171875 0.421875 -0.171875q0.28125 0 0.421875 0.171875q0.15625 0.15625 0.15625 0.390625q0 0.234375 -0.15625 0.390625q-0.140625 0.15625 -0.421875 0.15625q-0.28125 0 -0.421875 -0.15625q-0.140625 -0.15625 -0.140625 -0.390625zm4.9141235 7.234375q-1.140625 0 -1.859375 -0.75q-0.71875 -0.765625 -0.71875 -2.015625l0 -0.171875q0 -0.84375 0.3125 -1.5q0.328125 -0.65625 0.90625 -1.03125q0.578125 -0.375 1.234375 -0.375q1.109375 0 1.71875 0.734375q0.609375 0.71875 0.609375 2.0625l0 0.390625l-3.8125 0q0.015625 0.84375 0.484375 1.359375q0.46875 0.5 1.171875 0.5q0.515625 0 0.859375 -0.203125q0.359375 -0.203125 0.625 -0.546875l0.59375 0.453125q-0.703125 1.09375 -2.125 1.09375zm-0.125 -5.046875q-0.578125 0 -0.96875 0.421875q-0.390625 0.421875 -0.484375 1.1875l2.8125 0l0 -0.078125q-0.046875 -0.734375 -0.40625 -1.125q-0.34375 -0.40625 -0.953125 -0.40625zm8.426758 3.609375l1.078125 -4.296875l0.96875 0l-1.640625 5.625l-0.78125 0l-1.375 -4.265625l-1.328125 4.265625l-0.78125 0l-1.640625 -5.625l0.96875 0l1.109375 4.203125l1.296875 -4.203125l0.78125 0l1.34375 4.296875z" fill-rule="nonzero"/><path fill="#b85741" d="m574.3775 316.00543l-13.590576 14.173248l-13.590515 -14.173248z" fill-rule="evenodd"/><path fill="#1b786e" d="m92.95513 414.18817l169.82678 0l0 14.173218l-169.82678 0z" fill-rule="evenodd"/><path fill="#ffffff" d="m102.28326 423.35852l0.921875 -0.140625q0.078125 0.5625 0.4375 0.859375q0.359375 0.296875 1.0 0.296875q0.640625 0 0.953125 -0.265625q0.3125 -0.265625 0.3125 -0.625q0 -0.3125 -0.28125 -0.5q-0.1875 -0.125 -0.953125 -0.3125q-1.03125 -0.265625 -1.4375 -0.453125q-0.390625 -0.1875 -0.59375 -0.515625q-0.203125 -0.34375 -0.203125 -0.75q0 -0.359375 0.171875 -0.671875q0.171875 -0.328125 0.453125 -0.53125q0.21875 -0.15625 0.59375 -0.265625q0.390625 -0.125 0.8125 -0.125q0.65625 0 1.140625 0.1875q0.5 0.1875 0.734375 0.515625q0.234375 0.3125 0.3125 0.859375l-0.90625 0.125q-0.0625 -0.4375 -0.375 -0.671875q-0.296875 -0.234375 -0.828125 -0.234375q-0.65625 0 -0.9375 0.21875q-0.265625 0.203125 -0.265625 0.484375q0 0.1875 0.109375 0.328125q0.125 0.15625 0.359375 0.25q0.140625 0.0625 0.828125 0.25q1.0 0.265625 1.390625 0.4375q0.390625 0.15625 0.609375 0.484375q0.234375 0.3125 0.234375 0.796875q0 0.46875 -0.28125 0.890625q-0.265625 0.40625 -0.78125 0.640625q-0.515625 0.21875 -1.171875 0.21875q-1.078125 0 -1.640625 -0.4375q-0.5625 -0.453125 -0.71875 -1.34375zm7.75 0.8125l0.125 0.828125q-0.390625 0.09375 -0.703125 0.09375q-0.5 0 -0.78125 -0.15625q-0.28125 -0.171875 -0.40625 -0.4375q-0.109375 -0.265625 -0.109375 -1.109375l0 -3.171875l-0.6875 0l0 -0.734375l0.6875 0l0 -1.359375l0.9375 -0.5625l0 1.921875l0.9375 0l0 0.734375l-0.9375 0l0 3.234375q0 0.390625 0.046875 0.515625q0.046875 0.109375 0.15625 0.1875q0.109375 0.0625 0.328125 0.0625q0.15625 0 0.40625 -0.046875zm4.5231476 0.15625q-0.53125 0.453125 -1.015625 0.640625q-0.46875 0.171875 -1.015625 0.171875q-0.921875 0 -1.40625 -0.4375q-0.484375 -0.453125 -0.484375 -1.140625q0 -0.40625 0.171875 -0.734375q0.1875 -0.34375 0.484375 -0.546875q0.3125 -0.203125 0.6875 -0.3125q0.265625 -0.0625 0.828125 -0.140625q1.125 -0.125 1.671875 -0.3125q0 -0.203125 0 -0.25q0 -0.578125 -0.265625 -0.8125q-0.359375 -0.3125 -1.0625 -0.3125q-0.65625 0 -0.984375 0.234375q-0.3125 0.234375 -0.453125 0.8125l-0.921875 -0.125q0.125 -0.578125 0.40625 -0.9375q0.296875 -0.375 0.828125 -0.5625q0.546875 -0.203125 1.25 -0.203125q0.71875 0 1.15625 0.171875q0.4375 0.171875 0.640625 0.421875q0.21875 0.25 0.296875 0.640625q0.046875 0.234375 0.046875 0.859375l0 1.25q0 1.296875 0.0625 1.65625q0.0625 0.34375 0.234375 0.65625l-0.96875 0q-0.15625 -0.296875 -0.1875 -0.6875zm-0.078125 -2.078125q-0.515625 0.203125 -1.53125 0.34375q-0.578125 0.078125 -0.828125 0.1875q-0.234375 0.109375 -0.359375 0.3125q-0.125 0.1875 -0.125 0.4375q0 0.375 0.28125 0.625q0.28125 0.25 0.828125 0.25q0.53125 0 0.953125 -0.234375q0.421875 -0.234375 0.625 -0.65625q0.15625 -0.3125 0.15625 -0.9375l0 -0.328125zm3.2546234 2.765625l-0.859375 0l0 -7.625l0.9375 0l0 2.71875q0.59375 -0.75 1.5 -0.75q0.515625 0 0.96875 0.21875q0.453125 0.203125 0.75 0.578125q0.296875 0.359375 0.453125 0.890625q0.171875 0.53125 0.171875 1.125q0 1.421875 -0.703125 2.203125q-0.703125 0.765625 -1.6875 0.765625q-0.96875 0 -1.53125 -0.8125l0 0.6875zm0 -2.796875q0 0.984375 0.265625 1.421875q0.4375 0.734375 1.1875 0.734375q0.625 0 1.0625 -0.53125q0.453125 -0.546875 0.453125 -1.59375q0 -1.078125 -0.4375 -1.59375q-0.421875 -0.515625 -1.03125 -0.515625q-0.609375 0 -1.0625 0.53125q-0.4375 0.53125 -0.4375 1.546875zm5.0514984 2.796875l0 -7.625l0.9375 0l0 7.625l-0.9375 0zm6.16436 -1.78125l0.96875 0.125q-0.234375 0.84375 -0.859375 1.3125q-0.609375 0.46875 -1.5781326 0.46875q-1.203125 0 -1.921875 -0.75q-0.703125 -0.75 -0.703125 -2.09375q0 -1.390625 0.71875 -2.15625q0.71875 -0.78125 1.859375 -0.78125q1.1093826 0 1.8125076 0.765625q0.703125 0.75 0.703125 2.125q0 0.078125 0 0.234375l-4.1250076 0q0.046875 0.921875 0.515625 1.40625q0.46875 0.484375 1.15625 0.484375q0.5156326 0 0.8750076 -0.265625q0.359375 -0.28125 0.578125 -0.875zm-3.0781326 -1.515625l3.0937576 0q-0.0625 -0.6875 -0.359375 -1.046875q-0.453125 -0.53125 -1.1562576 -0.53125q-0.640625 0 -1.09375 0.4375q-0.4375 0.421875 -0.484375 1.140625z" fill-rule="nonzero"/><path fill="#1b786e" d="m262.76904 414.18817l274.86615 0l0 14.173218l-274.86615 0z" fill-rule="evenodd"/><path fill="#000000" fill-opacity="0.0" d="m177.86852 280.3771l0 -121.35434l25.196854 0" fill-rule="evenodd"/><path stroke="#666666" stroke-width="1.0" stroke-linejoin="round" stroke-linecap="butt" d="m177.86852 280.3771l0 -121.35434l25.196854 0" fill-rule="evenodd"/><path fill="#000000" fill-opacity="0.0" d="m177.86852 280.3771l0 -27.779541l25.196854 0" fill-rule="evenodd"/><path stroke="#666666" stroke-width="1.0" stroke-linejoin="round" stroke-linecap="butt" d="m177.86852 280.3771l0 -27.779541l25.196854 0" fill-rule="evenodd"/><path fill="#000000" fill-opacity="0.0" d="m315.51416 252.5958l16.0 0l0 27.779541" fill-rule="evenodd"/><path stroke="#666666" stroke-width="1.0" stroke-linejoin="round" stroke-linecap="butt" d="m315.51416 252.5958l16.0 0l0 21.779541" fill-rule="evenodd"/><path fill="#666666" stroke="#666666" stroke-width="1.0" stroke-linecap="butt" d="m329.86243 274.37534l1.6517334 4.538086l1.6517334 -4.538086z" fill-rule="evenodd"/><path fill="#000000" fill-opacity="0.0" d="m423.1044 159.0333l27.968506 0l0 121.35434" fill-rule="evenodd"/><path stroke="#666666" stroke-width="1.0" stroke-linejoin="round" stroke-linecap="butt" d="m423.1044 159.0333l27.968506 0l0 115.35434" fill-rule="evenodd"/><path fill="#666666" stroke="#666666" stroke-width="1.0" stroke-linecap="butt" d="m449.42117 274.38763l1.6517334 4.538086l1.6517334 -4.538086z" fill-rule="evenodd"/><path fill="#000000" fill-opacity="0.0" d="m451.0734 294.55118l112.44095 52.724426" fill-rule="evenodd"/><path stroke="#666666" stroke-width="1.0" stroke-linejoin="round" stroke-linecap="butt" d="m451.0734 294.55118l107.008514 50.177124" fill-rule="evenodd"/><path fill="#666666" stroke="#666666" stroke-width="1.0" stroke-linecap="butt" d="m557.3807 346.2238l4.8100586 0.43115234l-3.4075317 -3.4221497z" fill-rule="evenodd"/><path fill="#990000" d="m262.76904 280.3771l137.48032 0l0 14.173218l-137.48032 0z" fill-rule="evenodd"/><path fill="#1b786e" d="m515.4508 414.18817l355.0866 0l0 14.173218l-355.0866 0z" fill-rule="evenodd"/><path fill="#000000" fill-opacity="0.0" d="m563.5009 361.45587l129.48035 52.724396" fill-rule="evenodd"/><path stroke="#666666" stroke-width="1.0" stroke-linejoin="round" stroke-linecap="butt" d="m563.5009 361.45587l123.92334 50.46161" fill-rule="evenodd"/><path fill="#666666" stroke="#666666" stroke-width="1.0" stroke-linecap="butt" d="m686.80133 413.44727l4.8259277 0.18167114l-3.5800781 -3.241211z" fill-rule="evenodd"/><path fill="#000000" fill-opacity="0.0" d="m595.69977 365.445l191.62207 0l0 32.314972l-191.62207 0z" fill-rule="evenodd"/><path fill="#38761d" d="m676.4796 381.62253l-1.78125 0l0 3.0625l-1.0 0l0 -7.578125l2.5 0q1.28125 0 1.96875 0.59375q0.703125 0.578125 0.703125 1.6875q0 0.703125 -0.390625 1.234375q-0.375 0.53125 -1.0625 0.78125l1.78125 3.21875l0 0.0625l-1.078125 0l-1.640625 -3.0625zm-1.78125 -0.8125l1.53125 0q0.75 0 1.1875 -0.390625q0.4375 -0.390625 0.4375 -1.03125q0 -0.703125 -0.421875 -1.078125q-0.40625 -0.375 -1.203125 -0.375l-1.53125 0l0 2.875zm7.7487793 3.984375q-1.140625 0 -1.859375 -0.75q-0.71875 -0.765625 -0.71875 -2.015625l0 -0.171875q0 -0.84375 0.3125 -1.5q0.328125 -0.65625 0.90625 -1.03125q0.578125 -0.375 1.234375 -0.375q1.109375 0 1.71875 0.734375q0.609375 0.71875 0.609375 2.0625l0 0.390625l-3.8125 0q0.015625 0.84375 0.484375 1.359375q0.46875 0.5 1.171875 0.5q0.515625 0 0.859375 -0.203125q0.359375 -0.203125 0.625 -0.546875l0.59375 0.453125q-0.703125 1.09375 -2.125 1.09375zm-0.125 -5.046875q-0.578125 0 -0.96875 0.421875q-0.390625 0.421875 -0.484375 1.1875l2.8125 0l0 -0.078125q-0.046875 -0.734375 -0.40625 -1.125q-0.34375 -0.40625 -0.953125 -0.40625zm4.489258 4.9375l-0.96875 0l0 -8.0l0.96875 0l0 8.0zm3.8672485 0.109375q-1.140625 0 -1.859375 -0.75q-0.71875 -0.765625 -0.71875 -2.015625l0 -0.171875q0 -0.84375 0.3125 -1.5q0.328125 -0.65625 0.90625 -1.03125q0.578125 -0.375 1.234375 -0.375q1.109375 0 1.71875 0.734375q0.609375 0.71875 0.609375 2.0625l0 0.390625l-3.8125 0q0.015625 0.84375 0.484375 1.359375q0.46875 0.5 1.171875 0.5q0.515625 0 0.859375 -0.203125q0.359375 -0.203125 0.625 -0.546875l0.59375 0.453125q-0.703125 1.09375 -2.125 1.09375zm-0.125 -5.046875q-0.578125 0 -0.96875 0.421875q-0.390625 0.421875 -0.484375 1.1875l2.8125 0l0 -0.078125q-0.046875 -0.734375 -0.40625 -1.125q-0.34375 -0.40625 -0.953125 -0.40625zm6.911194 4.9375q-0.078125 -0.171875 -0.140625 -0.59375q-0.671875 0.703125 -1.59375 0.703125q-0.828125 0 -1.375 -0.46875q-0.53125 -0.484375 -0.53125 -1.203125q0 -0.875 0.671875 -1.359375q0.671875 -0.484375 1.875 -0.484375l0.9375 0l0 -0.453125q0 -0.5 -0.296875 -0.796875q-0.296875 -0.296875 -0.890625 -0.296875q-0.515625 0 -0.859375 0.265625q-0.34375 0.25 -0.34375 0.625l-0.96875 0q0 -0.421875 0.296875 -0.8125q0.296875 -0.40625 0.8125 -0.625q0.515625 -0.234375 1.125 -0.234375q0.96875 0 1.515625 0.484375q0.5625 0.484375 0.578125 1.34375l0 2.59375q0 0.765625 0.203125 1.234375l0 0.078125l-1.015625 0zm-1.59375 -0.734375q0.453125 0 0.859375 -0.234375q0.40625 -0.234375 0.578125 -0.609375l0 -1.15625l-0.75 0q-1.765625 0 -1.765625 1.03125q0 0.453125 0.296875 0.71875q0.3125 0.25 0.78125 0.25zm7.1870117 -0.765625q0 -0.390625 -0.296875 -0.59375q-0.28125 -0.21875 -1.015625 -0.375q-0.734375 -0.15625 -1.171875 -0.375q-0.421875 -0.21875 -0.625 -0.515625q-0.203125 -0.3125 -0.203125 -0.71875q0 -0.703125 0.578125 -1.171875q0.59375 -0.484375 1.5 -0.484375q0.953125 0 1.546875 0.5q0.609375 0.484375 0.609375 1.265625l-0.96875 0q0 -0.40625 -0.34375 -0.6875q-0.328125 -0.28125 -0.84375 -0.28125q-0.515625 0 -0.8125 0.234375q-0.296875 0.21875 -0.296875 0.59375q0 0.34375 0.265625 0.53125q0.28125 0.171875 1.0 0.328125q0.71875 0.15625 1.15625 0.390625q0.453125 0.21875 0.671875 0.53125q0.21875 0.3125 0.21875 0.765625q0 0.75 -0.609375 1.21875q-0.59375 0.453125 -1.5625 0.453125q-0.671875 0 -1.203125 -0.234375q-0.515625 -0.25 -0.8125 -0.671875q-0.28125 -0.4375 -0.28125 -0.9375l0.953125 0q0.03125 0.484375 0.390625 0.765625q0.359375 0.28125 0.953125 0.28125q0.546875 0 0.875 -0.21875q0.328125 -0.21875 0.328125 -0.59375zm4.557129 1.609375q-1.140625 0 -1.859375 -0.75q-0.71875 -0.765625 -0.71875 -2.015625l0 -0.171875q0 -0.84375 0.3125 -1.5q0.328125 -0.65625 0.90625 -1.03125q0.578125 -0.375 1.234375 -0.375q1.109375 0 1.71875 0.734375q0.609375 0.71875 0.609375 2.0625l0 0.390625l-3.8125 0q0.015625 0.84375 0.484375 1.359375q0.46875 0.5 1.171875 0.5q0.515625 0 0.859375 -0.203125q0.359375 -0.203125 0.625 -0.546875l0.59375 0.453125q-0.703125 1.09375 -2.125 1.09375zm-0.125 -5.046875q-0.578125 0 -0.96875 0.421875q-0.390625 0.421875 -0.484375 1.1875l2.8125 0l0 -0.078125q-0.046875 -0.734375 -0.40625 -1.125q-0.34375 -0.40625 -0.953125 -0.40625z" fill-rule="nonzero"/><path fill="#38761d" d="m706.8293 388.86325l-13.590576 14.173218l-13.590515 -14.173218z" fill-rule="evenodd"/><path fill="#009384" d="m451.0737 320.91776l0 0c0 -5.4706726 12.239899 -9.905518 27.338593 -9.905518l0 0c15.098663 0 27.338562 4.434845 27.338562 9.905518l0 0c0 5.4706726 -12.239899 9.905518 -27.338562 9.905518l0 0c-15.098694 0 -27.338593 -4.434845 -27.338593 -9.905518z" fill-rule="evenodd"/><path stroke="#666666" stroke-width="1.0" stroke-linejoin="round" stroke-linecap="butt" d="m451.0737 320.91776l0 0c0 -5.4706726 12.239899 -9.905518 27.338593 -9.905518l0 0c15.098663 0 27.338562 4.434845 27.338562 9.905518l0 0c0 5.4706726 -12.239899 9.905518 -27.338562 9.905518l0 0c-15.098694 0 -27.338593 -4.434845 -27.338593 -9.905518z" fill-rule="evenodd"/><path fill="#ffffff" d="m472.75604 320.76962q0 -0.875 0.265625 -1.46875q0.203125 -0.4375 0.53125 -0.78125q0.34375 -0.359375 0.75 -0.515625q0.53125 -0.234375 1.234375 -0.234375q1.265625 0 2.015625 0.796875q0.765625 0.78125 0.765625 2.171875q0 1.390625 -0.765625 2.171875q-0.75 0.78125 -2.0 0.78125q-1.28125 0 -2.046875 -0.78125q-0.75 -0.78125 -0.75 -2.140625zm1.203125 -0.046875q0 0.984375 0.4375 1.484375q0.453125 0.5 1.140625 0.5q0.703125 0 1.140625 -0.5q0.4375 -0.5 0.4375 -1.5q0 -0.984375 -0.4375 -1.46875q-0.421875 -0.484375 -1.140625 -0.484375q-0.703125 0 -1.140625 0.5q-0.4375 0.484375 -0.4375 1.46875zm5.2695312 2.875l0 -5.734375l1.15625 0l0 2.546875l2.34375 -2.546875l1.546875 0l-2.15625 2.234375l2.28125 3.5l-1.5 0l-1.578125 -2.6875l-0.9375 0.953125l0 1.734375l-1.15625 0z" fill-rule="nonzero"/><path fill="#009384" d="m549.81537 380.7333l0 0c0 -5.4706726 12.239929 -9.905518 27.338562 -9.905518l0 0c15.098694 0 27.338623 4.434845 27.338623 9.905518l0 0c0 5.470642 -12.239929 9.905487 -27.338623 9.905487l0 0c-15.098633 0 -27.338562 -4.434845 -27.338562 -9.905487z" fill-rule="evenodd"/><path stroke="#666666" stroke-width="1.0" stroke-linejoin="round" stroke-linecap="butt" d="m549.81537 380.7333l0 0c0 -5.4706726 12.239929 -9.905518 27.338562 -9.905518l0 0c15.098694 0 27.338623 4.434845 27.338623 9.905518l0 0c0 5.470642 -12.239929 9.905487 -27.338623 9.905487l0 0c-15.098633 0 -27.338562 -4.434845 -27.338562 -9.905487z" fill-rule="evenodd"/><path fill="#ffffff" d="m571.4977 380.58517q0 -0.875 0.265625 -1.46875q0.203125 -0.4375 0.53125 -0.78125q0.34375 -0.359375 0.75 -0.515625q0.53125 -0.234375 1.234375 -0.234375q1.265625 0 2.015625 0.796875q0.765625 0.78125 0.765625 2.171875q0 1.390625 -0.765625 2.171875q-0.75 0.78125 -2.0 0.78125q-1.28125 0 -2.046875 -0.78125q-0.75 -0.78125 -0.75 -2.140625zm1.203125 -0.046875q0 0.984375 0.4375 1.484375q0.453125 0.5 1.140625 0.5q0.703125 0 1.140625 -0.5q0.4375 -0.5 0.4375 -1.5q0 -0.984375 -0.4375 -1.46875q-0.421875 -0.484375 -1.140625 -0.484375q-0.703125 0 -1.140625 0.5q-0.4375 0.484375 -0.4375 1.46875zm5.2695312 2.875l0 -5.734375l1.15625 0l0 2.546875l2.34375 -2.546875l1.546875 0l-2.15625 2.234375l2.28125 3.5l-1.5 0l-1.578125 -2.6875l-0.9375 0.953125l0 1.734375l-1.15625 0z" fill-rule="nonzero"/><path fill="#cc0000" d="m291.65613 435.6063l88.81891 0l0 14.173248l-88.81891 0z" fill-rule="evenodd"/><path stroke="#666666" stroke-width="1.0" stroke-linejoin="round" stroke-linecap="butt" d="m291.65613 435.6063l88.81891 0l0 14.173248l-88.81891 0z" fill-rule="evenodd"/><path fill="#ffffff" d="m301.35925 446.43292l0 -7.625l0.9375 0l0 2.734375q0.65625 -0.765625 1.65625 -0.765625q0.609375 0 1.0625 0.25q0.453125 0.234375 0.640625 0.671875q0.203125 0.421875 0.203125 1.234375l0 3.5l-0.9375 0l0 -3.5q0 -0.703125 -0.3125 -1.015625q-0.296875 -0.328125 -0.859375 -0.328125q-0.40625 0 -0.78125 0.21875q-0.359375 0.21875 -0.515625 0.59375q-0.15625 0.359375 -0.15625 1.015625l0 3.015625l-0.9375 0zm5.5827637 -2.765625q0 -1.53125 0.84375 -2.265625q0.71875 -0.625 1.734375 -0.625q1.140625 0 1.859375 0.75q0.734375 0.75 0.734375 2.0625q0 1.0625 -0.328125 1.6875q-0.3125 0.609375 -0.921875 0.953125q-0.609375 0.328125 -1.34375 0.328125q-1.15625 0 -1.875 -0.734375q-0.703125 -0.75 -0.703125 -2.15625zm0.953125 0q0 1.0625 0.46875 1.59375q0.46875 0.53125 1.15625 0.53125q0.703125 0 1.15625 -0.53125q0.46875 -0.53125 0.46875 -1.625q0 -1.015625 -0.46875 -1.546875q-0.453125 -0.53125 -1.15625 -0.53125q-0.6875 0 -1.15625 0.53125q-0.46875 0.515625 -0.46875 1.578125zm7.363983 1.921875l0.125 0.828125q-0.390625 0.09375 -0.703125 0.09375q-0.5 0 -0.78125 -0.15625q-0.28125 -0.171875 -0.40625 -0.4375q-0.109375 -0.265625 -0.109375 -1.109375l0 -3.171875l-0.6875 0l0 -0.734375l0.6875 0l0 -1.359375l0.9375 -0.5625l0 1.921875l0.9375 0l0 0.734375l-0.9375 0l0 3.234375q0 0.390625 0.046875 0.515625q0.046875 0.109375 0.15625 0.1875q0.109375 0.0625 0.328125 0.0625q0.15625 0 0.40625 -0.046875zm1.1325378 0.84375l0 -4.796875l-0.828125 0l0 -0.734375l0.828125 0l0 -0.578125q0 -0.5625 0.109375 -0.828125q0.125 -0.375 0.46875 -0.59375q0.34375 -0.234375 0.953125 -0.234375q0.390625 0 0.875 0.09375l-0.140625 0.828125q-0.296875 -0.0625 -0.546875 -0.0625q-0.421875 0 -0.609375 0.1875q-0.171875 0.1875 -0.171875 0.6875l0 0.5l1.078125 0l0 0.734375l-1.078125 0l0 4.796875l-0.9375 0zm2.7418823 -6.546875l0 -1.078125l0.9375 0l0 1.078125l-0.9375 0zm0 6.546875l0 -5.53125l0.9375 0l0 5.53125l-0.9375 0zm1.7424927 0l2.015625 -2.875l-1.859375 -2.65625l1.171875 0l0.84375 1.296875q0.234375 0.375 0.390625 0.625q0.21875 -0.34375 0.40625 -0.609375l0.9375 -1.3125l1.125 0l-1.921875 2.609375l2.0625 2.921875l-1.15625 0l-1.125 -1.71875l-0.296875 -0.46875l-1.453125 2.1875l-1.140625 0zm5.25 0.125l2.21875 -7.890625l0.734375 0l-2.203125 7.890625l-0.75 0zm3.6637573 -6.671875l0 -1.078125l0.9375 0l0 1.078125l-0.9375 0zm0 6.546875l0 -5.53125l0.9375 0l0 5.53125l-0.9375 0zm1.9924927 -1.65625l0.921875 -0.140625q0.078125 0.5625 0.4375 0.859375q0.359375 0.296875 1.0 0.296875q0.640625 0 0.953125 -0.265625q0.3125 -0.265625 0.3125 -0.625q0 -0.3125 -0.28125 -0.5q-0.1875 -0.125 -0.953125 -0.3125q-1.03125 -0.265625 -1.4375 -0.453125q-0.390625 -0.1875 -0.59375 -0.515625q-0.203125 -0.34375 -0.203125 -0.75q0 -0.359375 0.171875 -0.671875q0.171875 -0.328125 0.453125 -0.53125q0.21875 -0.15625 0.59375 -0.265625q0.390625 -0.125 0.8125 -0.125q0.65625 0 1.140625 0.1875q0.5 0.1875 0.734375 0.515625q0.234375 0.3125 0.3125 0.859375l-0.90625 0.125q-0.0625 -0.4375 -0.375 -0.671875q-0.296875 -0.234375 -0.828125 -0.234375q-0.65625 0 -0.9375 0.21875q-0.265625 0.203125 -0.265625 0.484375q0 0.1875 0.109375 0.328125q0.125 0.15625 0.359375 0.25q0.140625 0.0625 0.828125 0.25q1.0 0.265625 1.390625 0.4375q0.390625 0.15625 0.609375 0.484375q0.234375 0.3125 0.234375 0.796875q0 0.46875 -0.28125 0.890625q-0.265625 0.40625 -0.78125 0.640625q-0.515625 0.21875 -1.171875 0.21875q-1.078125 0 -1.640625 -0.4375q-0.5625 -0.453125 -0.71875 -1.34375zm5.328125 0l0.921875 -0.140625q0.078125 0.5625 0.4375 0.859375q0.359375 0.296875 1.0 0.296875q0.640625 0 0.953125 -0.265625q0.3125 -0.265625 0.3125 -0.625q0 -0.3125 -0.28125 -0.5q-0.1875 -0.125 -0.953125 -0.3125q-1.03125 -0.265625 -1.4375 -0.453125q-0.390625 -0.1875 -0.59375 -0.515625q-0.203125 -0.34375 -0.203125 -0.75q0 -0.359375 0.171875 -0.671875q0.171875 -0.328125 0.453125 -0.53125q0.21875 -0.15625 0.59375 -0.265625q0.390625 -0.125 0.8125 -0.125q0.65625 0 1.140625 0.1875q0.5 0.1875 0.734375 0.515625q0.234375 0.3125 0.3125 0.859375l-0.90625 0.125q-0.0625 -0.4375 -0.375 -0.671875q-0.296875 -0.234375 -0.828125 -0.234375q-0.65625 0 -0.9375 0.21875q-0.265625 0.203125 -0.265625 0.484375q0 0.1875 0.109375 0.328125q0.125 0.15625 0.359375 0.25q0.140625 0.0625 0.828125 0.25q1.0 0.265625 1.390625 0.4375q0.390625 0.15625 0.609375 0.484375q0.234375 0.3125 0.234375 0.796875q0 0.46875 -0.28125 0.890625q-0.265625 0.40625 -0.78125 0.640625q-0.515625 0.21875 -1.171875 0.21875q-1.078125 0 -1.640625 -0.4375q-0.5625 -0.453125 -0.71875 -1.34375zm9.328125 1.65625l0 -0.8125q-0.65625 0.9375 -1.75 0.9375q-0.5 0 -0.921875 -0.1875q-0.421875 -0.1875 -0.625 -0.46875q-0.203125 -0.28125 -0.296875 -0.703125q-0.046875 -0.265625 -0.046875 -0.875l0 -3.421875l0.9375 0l0 3.0625q0 0.734375 0.046875 1.0q0.09375 0.359375 0.375 0.578125q0.296875 0.203125 0.703125 0.203125q0.421875 0 0.796875 -0.203125q0.375 -0.21875 0.515625 -0.59375q0.15625 -0.375 0.15625 -1.078125l0 -2.96875l0.9375 0l0 5.53125l-0.828125 0zm6.082733 -1.78125l0.96875 0.125q-0.234375 0.84375 -0.859375 1.3125q-0.609375 0.46875 -1.578125 0.46875q-1.203125 0 -1.921875 -0.75q-0.703125 -0.75 -0.703125 -2.09375q0 -1.390625 0.71875 -2.15625q0.71875 -0.78125 1.859375 -0.78125q1.109375 0 1.8125 0.765625q0.703125 0.75 0.703125 2.125q0 0.078125 0 0.234375l-4.125 0q0.046875 0.921875 0.515625 1.40625q0.46875 0.484375 1.15625 0.484375q0.515625 0 0.875 -0.265625q0.359375 -0.28125 0.578125 -0.875zm-3.078125 -1.515625l3.09375 0q-0.0625 -0.6875 -0.359375 -1.046875q-0.453125 -0.53125 -1.15625 -0.53125q-0.640625 0 -1.09375 0.4375q-0.4375 0.421875 -0.484375 1.140625z" fill-rule="nonzero"/><path fill="#000000" fill-opacity="0.0" d="m262.76904 421.27478l28.881897 21.417328" fill-rule="evenodd"/><path stroke="#ff9900" stroke-width="1.0" stroke-linejoin="round" stroke-linecap="butt" d="m262.76904 421.27478l24.062439 17.843445" fill-rule="evenodd"/><path fill="#ff9900" stroke="#ff9900" stroke-width="1.0" stroke-linecap="butt" d="m285.8476 440.44498l4.6290894 1.3763428l-2.661377 -4.029846z" fill-rule="evenodd"/><path fill="#000000" fill-opacity="0.0" d="m380.47504 442.6929l19.716522 -14.330688" fill-rule="evenodd"/><path stroke="#ff9900" stroke-width="1.0" stroke-linejoin="round" stroke-linecap="butt" d="m380.47504 442.6929l14.863098 -10.80307" fill-rule="evenodd"/><path fill="#ff9900" stroke="#ff9900" stroke-width="1.0" stroke-linecap="butt" d="m396.30927 433.22595l2.699768 -4.004242l-4.642029 1.3320618z" fill-rule="evenodd"/><path fill="#000000" fill-opacity="0.0" d="m259.29367 245.50919l53.795288 -79.40158" fill-rule="evenodd"/><path stroke="#666666" stroke-width="1.0" stroke-linejoin="round" stroke-linecap="butt" d="m259.29367 245.50919l50.42987 -74.434265" fill-rule="evenodd"/><path fill="#666666" stroke="#666666" stroke-width="1.0" stroke-linecap="butt" d="m311.091 172.00137l1.1779785 -4.6834717l-3.9128723 2.8305664z" fill-rule="evenodd"/><path fill="#666666" d="m245.32147 201.81496l0 0c0 -5.4706573 19.59372 -9.905502 43.763763 -9.905502l0 0c24.170074 0 43.763794 4.434845 43.763794 9.905502l0 0c0 5.4706726 -19.59372 9.905518 -43.763794 9.905518l0 0c-24.170044 0 -43.763763 -4.434845 -43.763763 -9.905518z" fill-rule="evenodd"/><path stroke="#666666" stroke-width="1.0" stroke-linejoin="round" stroke-linecap="butt" d="m245.32147 201.81496l0 0c0 -5.4706573 19.59372 -9.905502 43.763763 -9.905502l0 0c24.170074 0 43.763794 4.434845 43.763794 9.905502l0 0c0 5.4706726 -19.59372 9.905518 -43.763794 9.905518l0 0c-24.170044 0 -43.763763 -4.434845 -43.763763 -9.905518z" fill-rule="evenodd"/><path fill="#ffffff" d="m271.70633 201.57309l-1.078125 0.1875q-0.046875 -0.3125 -0.25 -0.46875q-0.1875 -0.171875 -0.5 -0.171875q-0.40625 0 -0.65625 0.28125q-0.234375 0.28125 -0.234375 0.9375q0 0.75 0.234375 1.0625q0.25 0.296875 0.671875 0.296875q0.3125 0 0.515625 -0.171875q0.203125 -0.1875 0.28125 -0.625l1.078125 0.1875q-0.171875 0.734375 -0.65625 1.125q-0.46875 0.375 -1.265625 0.375q-0.90625 0 -1.453125 -0.578125q-0.546875 -0.578125 -0.546875 -1.59375q0 -1.015625 0.546875 -1.59375q0.546875 -0.578125 1.46875 -0.578125q0.765625 0 1.203125 0.328125q0.453125 0.328125 0.640625 1.0zm1.9335938 -2.8125l0 2.109375q0.53125 -0.625 1.265625 -0.625q0.375 0 0.671875 0.140625q0.3125 0.140625 0.46875 0.359375q0.15625 0.21875 0.203125 0.484375q0.0625 0.265625 0.0625 0.828125l0 2.4375l-1.09375 0l0 -2.1875q0 -0.65625 -0.0625 -0.828125q-0.0625 -0.1875 -0.21875 -0.28125q-0.15625 -0.109375 -0.390625 -0.109375q-0.28125 0 -0.5 0.140625q-0.203125 0.125 -0.3125 0.390625q-0.09375 0.265625 -0.09375 0.796875l0 2.078125l-1.09375 0l0 -5.734375l1.09375 0zm6.1992188 4.40625l1.09375 0.1875q-0.21875 0.609375 -0.671875 0.921875q-0.453125 0.3125 -1.140625 0.3125q-1.078125 0 -1.59375 -0.703125q-0.421875 -0.578125 -0.421875 -1.4375q0 -1.03125 0.53125 -1.609375q0.546875 -0.59375 1.375 -0.59375q0.921875 0 1.453125 0.625q0.546875 0.609375 0.515625 1.859375l-2.75 0q0.015625 0.5 0.265625 0.765625q0.265625 0.265625 0.640625 0.265625q0.25 0 0.421875 -0.140625q0.1875 -0.140625 0.28125 -0.453125zm0.0625 -1.109375q-0.015625 -0.46875 -0.25 -0.71875q-0.234375 -0.25 -0.578125 -0.25q-0.359375 0 -0.59375 0.265625q-0.234375 0.265625 -0.21875 0.703125l1.640625 0zm3.0273438 2.4375l-1.09375 0l0 -4.15625l1.015625 0l0 0.59375q0.265625 -0.421875 0.46875 -0.546875q0.21875 -0.140625 0.484375 -0.140625q0.375 0 0.71875 0.21875l-0.34375 0.953125q-0.28125 -0.1875 -0.515625 -0.1875q-0.234375 0 -0.390625 0.140625q-0.15625 0.125 -0.25 0.453125q-0.09375 0.328125 -0.09375 1.390625l0 1.28125zm3.1132812 0l-1.09375 0l0 -4.15625l1.015625 0l0 0.59375q0.265625 -0.421875 0.46875 -0.546875q0.21875 -0.140625 0.484375 -0.140625q0.375 0 0.71875 0.21875l-0.34375 0.953125q-0.28125 -0.1875 -0.515625 -0.1875q-0.234375 0 -0.390625 0.140625q-0.15625 0.125 -0.25 0.453125q-0.09375 0.328125 -0.09375 1.390625l0 1.28125zm1.5507812 -4.15625l1.15625 0l1.0 2.953125l0.96875 -2.953125l1.140625 0l-1.46875 4.0l-0.265625 0.71875q-0.140625 0.375 -0.28125 0.5625q-0.125 0.1875 -0.296875 0.296875q-0.171875 0.125 -0.421875 0.1875q-0.234375 0.078125 -0.546875 0.078125q-0.328125 0 -0.625 -0.0625l-0.09375 -0.859375q0.25 0.046875 0.453125 0.046875q0.390625 0 0.5625 -0.234375q0.1875 -0.21875 0.296875 -0.5625l-1.578125 -4.171875zm4.8398438 2.625l0 -1.09375l2.15625 0l0 1.09375l-2.15625 0zm2.7578125 -2.625l1.015625 0l0 0.609375q0.203125 -0.3125 0.546875 -0.5q0.34375 -0.203125 0.75 -0.203125q0.71875 0 1.21875 0.578125q0.515625 0.5625 0.515625 1.578125q0 1.03125 -0.515625 1.609375q-0.5 0.578125 -1.21875 0.578125q-0.34375 0 -0.625 -0.140625q-0.28125 -0.140625 -0.59375 -0.46875l0 2.09375l-1.09375 0l0 -5.734375zm1.078125 2.015625q0 0.6875 0.28125 1.03125q0.28125 0.328125 0.671875 0.328125q0.390625 0 0.640625 -0.296875q0.25 -0.3125 0.25 -1.015625q0 -0.65625 -0.265625 -0.96875q-0.25 -0.3125 -0.640625 -0.3125q-0.40625 0 -0.671875 0.3125q-0.265625 0.3125 -0.265625 0.921875zm3.8398438 -2.578125l0 -1.015625l1.09375 0l0 1.015625l-1.09375 0zm0 4.71875l0 -4.15625l1.09375 0l0 4.15625l-1.09375 0zm5.8320312 -2.921875l-1.078125 0.1875q-0.046875 -0.3125 -0.25 -0.46875q-0.1875 -0.171875 -0.5 -0.171875q-0.40625 0 -0.65625 0.28125q-0.234375 0.28125 -0.234375 0.9375q0 0.75 0.234375 1.0625q0.25 0.296875 0.671875 0.296875q0.3125 0 0.515625 -0.171875q0.203125 -0.1875 0.28125 -0.625l1.078125 0.1875q-0.171875 0.734375 -0.65625 1.125q-0.46875 0.375 -1.265625 0.375q-0.90625 0 -1.453125 -0.578125q-0.546875 -0.578125 -0.546875 -1.59375q0 -1.015625 0.546875 -1.59375q0.546875 -0.578125 1.46875 -0.578125q0.765625 0 1.203125 0.328125q0.453125 0.328125 0.640625 1.0zm0.79296875 2.921875l0 -5.734375l1.109375 0l0 3.046875l1.28125 -1.46875l1.34375 0l-1.40625 1.515625l1.515625 2.640625l-1.1875 0l-1.046875 -1.859375l-0.5 0.53125l0 1.328125l-1.109375 0z" fill-rule="nonzero"/><path fill="#626b73" d="m491.0729 151.94669l220.03146 0l0 14.173218l-220.03146 0z" fill-rule="evenodd"/><path stroke="#666666" stroke-width="1.0" stroke-linejoin="round" stroke-linecap="butt" d="m491.0729 151.94669l220.03146 0l0 14.173218l-220.03146 0z" fill-rule="evenodd"/><path fill="#ffffff" d="m504.35416 162.7733l0 -0.703125q-0.515625 0.828125 -1.546875 0.828125q-0.65625 0 -1.21875 -0.359375q-0.546875 -0.375 -0.859375 -1.015625q-0.296875 -0.65625 -0.296875 -1.5q0 -0.828125 0.28125 -1.5q0.28125 -0.6875 0.828125 -1.046875q0.546875 -0.359375 1.234375 -0.359375q0.5 0 0.890625 0.21875q0.390625 0.203125 0.625 0.546875l0 -2.734375l0.9375 0l0 7.625l-0.875 0zm-2.953125 -2.75q0 1.046875 0.4375 1.578125q0.453125 0.53125 1.0625 0.53125q0.609375 0 1.03125 -0.5q0.4375 -0.515625 0.4375 -1.53125q0 -1.140625 -0.4375 -1.671875q-0.4375 -0.53125 -1.078125 -0.53125q-0.609375 0 -1.03125 0.515625q-0.421875 0.5 -0.421875 1.609375zm9.082733 0.96875l0.96875 0.125q-0.234375 0.84375 -0.859375 1.3125q-0.609375 0.46875 -1.578125 0.46875q-1.203125 0 -1.921875 -0.75q-0.703125 -0.75 -0.703125 -2.09375q0 -1.390625 0.71875 -2.15625q0.71875 -0.78125 1.859375 -0.78125q1.109375 0 1.8125 0.765625q0.703125 0.75 0.703125 2.125q0 0.078125 0 0.234375l-4.125 0q0.046875 0.921875 0.515625 1.40625q0.46875 0.484375 1.15625 0.484375q0.515625 0 0.875 -0.265625q0.359375 -0.28125 0.578125 -0.875zm-3.078125 -1.515625l3.09375 0q-0.0625 -0.6875 -0.359375 -1.046875q-0.453125 -0.53125 -1.15625 -0.53125q-0.640625 0 -1.09375 0.4375q-0.4375 0.421875 -0.484375 1.140625zm6.7546387 3.296875l-2.09375 -5.53125l0.984375 0l1.1875 3.3125q0.1875 0.53125 0.359375 1.109375q0.109375 -0.4375 0.34375 -1.046875l1.21875 -3.375l0.96875 0l-2.09375 5.53125l-0.875 0zm3.09375 0.125l2.21875 -7.890625l0.734375 0l-2.203125 7.890625l-0.75 0zm3.8825073 -0.125l0 -4.796875l-0.828125 0l0 -0.734375l0.828125 0l0 -0.578125q0 -0.5625 0.109375 -0.828125q0.125 -0.375 0.46875 -0.59375q0.34375 -0.234375 0.953125 -0.234375q0.390625 0 0.875 0.09375l-0.140625 0.828125q-0.296875 -0.0625 -0.546875 -0.0625q-0.421875 0 -0.609375 0.1875q-0.171875 0.1875 -0.171875 0.6875l0 0.5l1.078125 0l0 0.734375l-1.078125 0l0 4.796875l-0.9375 0zm6.5231323 -1.78125l0.96875 0.125q-0.234375 0.84375 -0.859375 1.3125q-0.609375 0.46875 -1.578125 0.46875q-1.203125 0 -1.921875 -0.75q-0.703125 -0.75 -0.703125 -2.09375q0 -1.390625 0.71875 -2.15625q0.71875 -0.78125 1.859375 -0.78125q1.109375 0 1.8125 0.765625q0.703125 0.75 0.703125 2.125q0 0.078125 0 0.234375l-4.125 0q0.046875 0.921875 0.515625 1.40625q0.46875 0.484375 1.15625 0.484375q0.515625 0 0.875 -0.265625q0.359375 -0.28125 0.578125 -0.875zm-3.078125 -1.515625l3.09375 0q-0.0625 -0.6875 -0.359375 -1.046875q-0.453125 -0.53125 -1.15625 -0.53125q-0.640625 0 -1.09375 0.4375q-0.4375 0.421875 -0.484375 1.140625zm8.832764 2.609375q-0.53125 0.453125 -1.015625 0.640625q-0.46875 0.171875 -1.015625 0.171875q-0.921875 0 -1.40625 -0.4375q-0.484375 -0.453125 -0.484375 -1.140625q0 -0.40625 0.171875 -0.734375q0.1875 -0.34375 0.484375 -0.546875q0.3125 -0.203125 0.6875 -0.3125q0.265625 -0.0625 0.828125 -0.140625q1.125 -0.125 1.671875 -0.3125q0 -0.203125 0 -0.25q0 -0.578125 -0.265625 -0.8125q-0.359375 -0.3125 -1.0625 -0.3125q-0.65625 0 -0.984375 0.234375q-0.3125 0.234375 -0.453125 0.8125l-0.921875 -0.125q0.125 -0.578125 0.40625 -0.9375q0.296875 -0.375 0.828125 -0.5625q0.546875 -0.203125 1.25 -0.203125q0.71875 0 1.15625 0.171875q0.4375 0.171875 0.640625 0.421875q0.21875 0.25 0.296875 0.640625q0.046875 0.234375 0.046875 0.859375l0 1.25q0 1.296875 0.0625 1.65625q0.0625 0.34375 0.234375 0.65625l-0.96875 0q-0.15625 -0.296875 -0.1875 -0.6875zm-0.078125 -2.078125q-0.515625 0.203125 -1.53125 0.34375q-0.578125 0.078125 -0.828125 0.1875q-0.234375 0.109375 -0.359375 0.3125q-0.125 0.1875 -0.125 0.4375q0 0.375 0.28125 0.625q0.28125 0.25 0.828125 0.25q0.53125 0 0.953125 -0.234375q0.421875 -0.234375 0.625 -0.65625q0.15625 -0.3125 0.15625 -0.9375l0 -0.328125zm4.4421387 1.921875l0.125 0.828125q-0.390625 0.09375 -0.703125 0.09375q-0.5 0 -0.78125 -0.15625q-0.28125 -0.171875 -0.40625 -0.4375q-0.109375 -0.265625 -0.109375 -1.109375l0 -3.171875l-0.6875 0l0 -0.734375l0.6875 0l0 -1.359375l0.9375 -0.5625l0 1.921875l0.9375 0l0 0.734375l-0.9375 0l0 3.234375q0 0.390625 0.046875 0.515625q0.046875 0.109375 0.15625 0.1875q0.109375 0.0625 0.328125 0.0625q0.15625 0 0.40625 -0.046875zm4.5387573 0.84375l0 -0.8125q-0.65625 0.9375 -1.75 0.9375q-0.5 0 -0.921875 -0.1875q-0.421875 -0.1875 -0.625 -0.46875q-0.203125 -0.28125 -0.296875 -0.703125q-0.046875 -0.265625 -0.046875 -0.875l0 -3.421875l0.9375 0l0 3.0625q0 0.734375 0.046875 1.0q0.09375 0.359375 0.375 0.578125q0.296875 0.203125 0.703125 0.203125q0.421875 0 0.796875 -0.203125q0.375 -0.21875 0.515625 -0.59375q0.15625 -0.375 0.15625 -1.078125l0 -2.96875l0.9375 0l0 5.53125l-0.828125 0zm2.2858887 0l0 -5.53125l0.84375 0l0 0.84375q0.328125 -0.59375 0.59375 -0.78125q0.28125 -0.1875 0.609375 -0.1875q0.46875 0 0.953125 0.3125l-0.3125 0.859375q-0.34375 -0.203125 -0.6875 -0.203125q-0.3125 0 -0.5625 0.1875q-0.234375 0.1875 -0.34375 0.515625q-0.15625 0.5 -0.15625 1.09375l0 2.890625l-0.9375 0zm7.345459 -1.78125l0.96875 0.125q-0.234375 0.84375 -0.859375 1.3125q-0.609375 0.46875 -1.578125 0.46875q-1.203125 0 -1.921875 -0.75q-0.703125 -0.75 -0.703125 -2.09375q0 -1.390625 0.71875 -2.15625q0.71875 -0.78125 1.859375 -0.78125q1.109375 0 1.8125 0.765625q0.703125 0.75 0.703125 2.125q0 0.078125 0 0.234375l-4.125 0q0.046875 0.921875 0.515625 1.40625q0.46875 0.484375 1.15625 0.484375q0.515625 0 0.875 -0.265625q0.359375 -0.28125 0.578125 -0.875zm-3.078125 -1.515625l3.09375 0q-0.0625 -0.6875 -0.359375 -1.046875q-0.453125 -0.53125 -1.15625 -0.53125q-0.640625 0 -1.09375 0.4375q-0.4375 0.421875 -0.484375 1.140625zm4.8640137 1.0l0 -0.9375l2.875 0l0 0.9375l-2.875 0zm7.517395 1.609375q-0.53125 0.453125 -1.015625 0.640625q-0.46875 0.171875 -1.015625 0.171875q-0.921875 0 -1.40625 -0.4375q-0.484375 -0.453125 -0.484375 -1.140625q0 -0.40625 0.171875 -0.734375q0.1875 -0.34375 0.484375 -0.546875q0.3125 -0.203125 0.6875 -0.3125q0.265625 -0.0625 0.828125 -0.140625q1.125 -0.125 1.671875 -0.3125q0 -0.203125 0 -0.25q0 -0.578125 -0.265625 -0.8125q-0.359375 -0.3125 -1.0625 -0.3125q-0.65625 0 -0.984375 0.234375q-0.3125 0.234375 -0.453125 0.8125l-0.921875 -0.125q0.125 -0.578125 0.40625 -0.9375q0.296875 -0.375 0.828125 -0.5625q0.546875 -0.203125 1.25 -0.203125q0.71875 0 1.15625 0.171875q0.4375 0.171875 0.640625 0.421875q0.21875 0.25 0.296875 0.640625q0.046875 0.234375 0.046875 0.859375l0 1.25q0 1.296875 0.0625 1.65625q0.0625 0.34375 0.234375 0.65625l-0.96875 0q-0.15625 -0.296875 -0.1875 -0.6875zm-0.078125 -2.078125q-0.515625 0.203125 -1.53125 0.34375q-0.578125 0.078125 -0.828125 0.1875q-0.234375 0.109375 -0.359375 0.3125q-0.125 0.1875 -0.125 0.4375q0 0.375 0.28125 0.625q0.28125 0.25 0.828125 0.25q0.53125 0 0.953125 -0.234375q0.421875 -0.234375 0.625 -0.65625q0.15625 -0.3125 0.15625 -0.9375l0 -0.328125zm7.0514526 1.859375l0 0.90625l-5.03125 0q-0.015625 -0.34375 0.109375 -0.65625q0.1875 -0.515625 0.609375 -1.015625q0.421875 -0.5 1.234375 -1.140625q1.234375 -1.03125 1.671875 -1.625q0.4375 -0.59375 0.4375 -1.125q0 -0.5625 -0.40625 -0.9375q-0.390625 -0.390625 -1.03125 -0.390625q-0.671875 0 -1.078125 0.40625q-0.40625 0.40625 -0.40625 1.125l-0.96875 -0.09375q0.09375 -1.078125 0.734375 -1.640625q0.65625 -0.5625 1.734375 -0.5625q1.109375 0 1.75 0.609375q0.640625 0.609375 0.640625 1.5q0 0.46875 -0.1875 0.90625q-0.1875 0.4375 -0.625 0.9375q-0.4375 0.484375 -1.453125 1.328125q-0.828125 0.71875 -1.078125 0.96875q-0.234375 0.25 -0.390625 0.5l3.734375 0z" fill-rule="nonzero"/><path fill="#000000" fill-opacity="0.0" d="m423.1044 159.0333l67.968506 0" fill-rule="evenodd"/><path stroke="#666666" stroke-width="1.0" stroke-linejoin="round" stroke-linecap="butt" d="m423.1044 159.0333l61.968506 0" fill-rule="evenodd"/><path fill="#666666" stroke="#666666" stroke-width="1.0" stroke-linecap="butt" d="m485.0729 160.68503l4.5381165 -1.6517334l-4.5381165 -1.6517334z" fill-rule="evenodd"/><path fill="#626b73" d="m491.0729 201.843l220.03146 0l0 14.173233l-220.03146 0z" fill-rule="evenodd"/><path stroke="#666666" stroke-width="1.0" stroke-linejoin="round" stroke-linecap="butt" d="m491.0729 201.843l220.03146 0l0 14.173233l-220.03146 0z" fill-rule="evenodd"/><path fill="#ffffff" d="m504.35416 212.66962l0 -0.703125q-0.515625 0.828125 -1.546875 0.828125q-0.65625 0 -1.21875 -0.359375q-0.546875 -0.375 -0.859375 -1.015625q-0.296875 -0.65625 -0.296875 -1.5q0 -0.828125 0.28125 -1.5q0.28125 -0.6875 0.828125 -1.046875q0.546875 -0.359375 1.234375 -0.359375q0.5 0 0.890625 0.21875q0.390625 0.203125 0.625 0.546875l0 -2.734375l0.9375 0l0 7.625l-0.875 0zm-2.953125 -2.75q0 1.046875 0.4375 1.578125q0.453125 0.53125 1.0625 0.53125q0.609375 0 1.03125 -0.5q0.4375 -0.515625 0.4375 -1.53125q0 -1.140625 -0.4375 -1.671875q-0.4375 -0.53125 -1.078125 -0.53125q-0.609375 0 -1.03125 0.515625q-0.421875 0.5 -0.421875 1.609375zm9.082733 0.96875l0.96875 0.125q-0.234375 0.84375 -0.859375 1.3125q-0.609375 0.46875 -1.578125 0.46875q-1.203125 0 -1.921875 -0.75q-0.703125 -0.75 -0.703125 -2.09375q0 -1.390625 0.71875 -2.15625q0.71875 -0.78125 1.859375 -0.78125q1.109375 0 1.8125 0.765625q0.703125 0.75 0.703125 2.125q0 0.078125 0 0.234375l-4.125 0q0.046875 0.921875 0.515625 1.40625q0.46875 0.484375 1.15625 0.484375q0.515625 0 0.875 -0.265625q0.359375 -0.28125 0.578125 -0.875zm-3.078125 -1.515625l3.09375 0q-0.0625 -0.6875 -0.359375 -1.046875q-0.453125 -0.53125 -1.15625 -0.53125q-0.640625 0 -1.09375 0.4375q-0.4375 0.421875 -0.484375 1.140625zm6.7546387 3.296875l-2.09375 -5.53125l0.984375 0l1.1875 3.3125q0.1875 0.53125 0.359375 1.109375q0.109375 -0.4375 0.34375 -1.046875l1.21875 -3.375l0.96875 0l-2.09375 5.53125l-0.875 0zm3.09375 0.125l2.21875 -7.890625l0.734375 0l-2.203125 7.890625l-0.75 0zm3.8825073 -0.125l0 -4.796875l-0.828125 0l0 -0.734375l0.828125 0l0 -0.578125q0 -0.5625 0.109375 -0.828125q0.125 -0.375 0.46875 -0.59375q0.34375 -0.234375 0.953125 -0.234375q0.390625 0 0.875 0.09375l-0.140625 0.828125q-0.296875 -0.0625 -0.546875 -0.0625q-0.421875 0 -0.609375 0.1875q-0.171875 0.1875 -0.171875 0.6875l0 0.5l1.078125 0l0 0.734375l-1.078125 0l0 4.796875l-0.9375 0zm6.5231323 -1.78125l0.96875 0.125q-0.234375 0.84375 -0.859375 1.3125q-0.609375 0.46875 -1.578125 0.46875q-1.203125 0 -1.921875 -0.75q-0.703125 -0.75 -0.703125 -2.09375q0 -1.390625 0.71875 -2.15625q0.71875 -0.78125 1.859375 -0.78125q1.109375 0 1.8125 0.765625q0.703125 0.75 0.703125 2.125q0 0.078125 0 0.234375l-4.125 0q0.046875 0.921875 0.515625 1.40625q0.46875 0.484375 1.15625 0.484375q0.515625 0 0.875 -0.265625q0.359375 -0.28125 0.578125 -0.875zm-3.078125 -1.515625l3.09375 0q-0.0625 -0.6875 -0.359375 -1.046875q-0.453125 -0.53125 -1.15625 -0.53125q-0.640625 0 -1.09375 0.4375q-0.4375 0.421875 -0.484375 1.140625zm8.832764 2.609375q-0.53125 0.453125 -1.015625 0.640625q-0.46875 0.171875 -1.015625 0.171875q-0.921875 0 -1.40625 -0.4375q-0.484375 -0.453125 -0.484375 -1.140625q0 -0.40625 0.171875 -0.734375q0.1875 -0.34375 0.484375 -0.546875q0.3125 -0.203125 0.6875 -0.3125q0.265625 -0.0625 0.828125 -0.140625q1.125 -0.125 1.671875 -0.3125q0 -0.203125 0 -0.25q0 -0.578125 -0.265625 -0.8125q-0.359375 -0.3125 -1.0625 -0.3125q-0.65625 0 -0.984375 0.234375q-0.3125 0.234375 -0.453125 0.8125l-0.921875 -0.125q0.125 -0.578125 0.40625 -0.9375q0.296875 -0.375 0.828125 -0.5625q0.546875 -0.203125 1.25 -0.203125q0.71875 0 1.15625 0.171875q0.4375 0.171875 0.640625 0.421875q0.21875 0.25 0.296875 0.640625q0.046875 0.234375 0.046875 0.859375l0 1.25q0 1.296875 0.0625 1.65625q0.0625 0.34375 0.234375 0.65625l-0.96875 0q-0.15625 -0.296875 -0.1875 -0.6875zm-0.078125 -2.078125q-0.515625 0.203125 -1.53125 0.34375q-0.578125 0.078125 -0.828125 0.1875q-0.234375 0.109375 -0.359375 0.3125q-0.125 0.1875 -0.125 0.4375q0 0.375 0.28125 0.625q0.28125 0.25 0.828125 0.25q0.53125 0 0.953125 -0.234375q0.421875 -0.234375 0.625 -0.65625q0.15625 -0.3125 0.15625 -0.9375l0 -0.328125zm4.4421387 1.921875l0.125 0.828125q-0.390625 0.09375 -0.703125 0.09375q-0.5 0 -0.78125 -0.15625q-0.28125 -0.171875 -0.40625 -0.4375q-0.109375 -0.265625 -0.109375 -1.109375l0 -3.171875l-0.6875 0l0 -0.734375l0.6875 0l0 -1.359375l0.9375 -0.5625l0 1.921875l0.9375 0l0 0.734375l-0.9375 0l0 3.234375q0 0.390625 0.046875 0.515625q0.046875 0.109375 0.15625 0.1875q0.109375 0.0625 0.328125 0.0625q0.15625 0 0.40625 -0.046875zm4.5387573 0.84375l0 -0.8125q-0.65625 0.9375 -1.75 0.9375q-0.5 0 -0.921875 -0.1875q-0.421875 -0.1875 -0.625 -0.46875q-0.203125 -0.28125 -0.296875 -0.703125q-0.046875 -0.265625 -0.046875 -0.875l0 -3.421875l0.9375 0l0 3.0625q0 0.734375 0.046875 1.0q0.09375 0.359375 0.375 0.578125q0.296875 0.203125 0.703125 0.203125q0.421875 0 0.796875 -0.203125q0.375 -0.21875 0.515625 -0.59375q0.15625 -0.375 0.15625 -1.078125l0 -2.96875l0.9375 0l0 5.53125l-0.828125 0zm2.2858887 0l0 -5.53125l0.84375 0l0 0.84375q0.328125 -0.59375 0.59375 -0.78125q0.28125 -0.1875 0.609375 -0.1875q0.46875 0 0.953125 0.3125l-0.3125 0.859375q-0.34375 -0.203125 -0.6875 -0.203125q-0.3125 0 -0.5625 0.1875q-0.234375 0.1875 -0.34375 0.515625q-0.15625 0.5 -0.15625 1.09375l0 2.890625l-0.9375 0zm7.345459 -1.78125l0.96875 0.125q-0.234375 0.84375 -0.859375 1.3125q-0.609375 0.46875 -1.578125 0.46875q-1.203125 0 -1.921875 -0.75q-0.703125 -0.75 -0.703125 -2.09375q0 -1.390625 0.71875 -2.15625q0.71875 -0.78125 1.859375 -0.78125q1.109375 0 1.8125 0.765625q0.703125 0.75 0.703125 2.125q0 0.078125 0 0.234375l-4.125 0q0.046875 0.921875 0.515625 1.40625q0.46875 0.484375 1.15625 0.484375q0.515625 0 0.875 -0.265625q0.359375 -0.28125 0.578125 -0.875zm-3.078125 -1.515625l3.09375 0q-0.0625 -0.6875 -0.359375 -1.046875q-0.453125 -0.53125 -1.15625 -0.53125q-0.640625 0 -1.09375 0.4375q-0.4375 0.421875 -0.484375 1.140625zm4.8640137 1.0l0 -0.9375l2.875 0l0 0.9375l-2.875 0zm4.767395 2.296875l-0.859375 0l0 -7.625l0.9375 0l0 2.71875q0.59375 -0.75 1.5 -0.75q0.515625 0 0.96875 0.21875q0.453125 0.203125 0.75 0.578125q0.296875 0.359375 0.453125 0.890625q0.171875 0.53125 0.171875 1.125q0 1.421875 -0.703125 2.203125q-0.703125 0.765625 -1.6875 0.765625q-0.96875 0 -1.53125 -0.8125l0 0.6875zm0 -2.796875q0 0.984375 0.265625 1.421875q0.4375 0.734375 1.1875 0.734375q0.625 0 1.0625 -0.53125q0.453125 -0.546875 0.453125 -1.59375q0 -1.078125 -0.4375 -1.59375q-0.421875 -0.515625 -1.03125 -0.515625q-0.609375 0 -1.0625 0.53125q-0.4375 0.53125 -0.4375 1.546875z" fill-rule="nonzero"/><path fill="#000000" fill-opacity="0.0" d="m400.24936 287.4637l90.834656 -78.519684" fill-rule="evenodd"/><path stroke="#666666" stroke-width="1.0" stroke-linejoin="round" stroke-linecap="butt" d="m400.24933 287.4637l86.2955 -74.59593" fill-rule="evenodd"/><path fill="#666666" stroke="#666666" stroke-width="1.0" stroke-linecap="butt" d="m487.625 214.11737l2.3530273 -4.2173157l-4.5133667 1.7181549z" fill-rule="evenodd"/><path fill="#b85741" d="m345.10065 229.07103l-13.590576 14.173218l-13.590546 -14.173218z" fill-rule="evenodd"/></g></svg>